<mxfile host="Electron" modified="2024-06-17T09:19:26.934Z" agent="Mozilla/5.0 (Windows NT 10.0; Win64; x64) AppleWebKit/537.36 (KHTML, like Gecko) draw.io/24.4.13 Chrome/124.0.6367.207 Electron/30.0.6 Safari/537.36" etag="AEI6NdmrvUK65rpxXc1X" version="24.4.13" type="device">
  <diagram id="CwZ13-dvnRl59raYhXSn" name="Logical Model">
    <mxGraphModel dx="2350" dy="1619" grid="1" gridSize="10" guides="1" tooltips="1" connect="1" arrows="1" fold="1" page="1" pageScale="1" pageWidth="1169" pageHeight="827" math="0" shadow="0">
      <root>
        <mxCell id="r35dB6ONybMWZtxrlVqa-0" />
        <mxCell id="r35dB6ONybMWZtxrlVqa-1" parent="r35dB6ONybMWZtxrlVqa-0" />
        <mxCell id="e1cUlFGXbWlImAR1SOJB-0" value="Administrator" style="swimlane;fontStyle=0;childLayout=stackLayout;horizontal=1;startSize=26;fillColor=#CCE5FF;horizontalStack=0;resizeParent=1;resizeParentMax=0;resizeLast=0;collapsible=1;marginBottom=0;swimlaneFillColor=#ffffff;align=center;fontSize=13;" parent="r35dB6ONybMWZtxrlVqa-1" vertex="1">
          <mxGeometry x="-520" y="-800" width="199" height="108" as="geometry" />
        </mxCell>
        <mxCell id="e1cUlFGXbWlImAR1SOJB-1" value="AdministratorID" style="shape=partialRectangle;top=0;left=0;right=0;bottom=1;align=left;verticalAlign=middle;fillColor=none;spacingLeft=44;spacingRight=4;overflow=hidden;rotatable=0;points=[[0,0.5],[1,0.5]];portConstraint=eastwest;dropTarget=0;fontStyle=5;fontSize=11;" parent="e1cUlFGXbWlImAR1SOJB-0" vertex="1">
          <mxGeometry y="26" width="199" height="30" as="geometry" />
        </mxCell>
        <mxCell id="e1cUlFGXbWlImAR1SOJB-2" value="PK" style="shape=partialRectangle;top=0;left=0;bottom=0;fillColor=none;align=center;verticalAlign=middle;spacingLeft=4;spacingRight=4;overflow=hidden;rotatable=0;points=[];portConstraint=eastwest;part=1;fontSize=11;" parent="e1cUlFGXbWlImAR1SOJB-1" vertex="1" connectable="0">
          <mxGeometry width="40" height="30" as="geometry" />
        </mxCell>
        <mxCell id="e1cUlFGXbWlImAR1SOJB-5" value="Login" style="shape=partialRectangle;top=0;left=0;right=0;bottom=0;align=left;verticalAlign=top;fillColor=none;spacingLeft=44;spacingRight=4;overflow=hidden;rotatable=0;points=[[0,0.5],[1,0.5]];portConstraint=eastwest;dropTarget=0;fontSize=11;" parent="e1cUlFGXbWlImAR1SOJB-0" vertex="1">
          <mxGeometry y="56" width="199" height="26" as="geometry" />
        </mxCell>
        <mxCell id="e1cUlFGXbWlImAR1SOJB-6" value="AK" style="shape=partialRectangle;top=0;left=0;bottom=0;fillColor=none;align=center;verticalAlign=top;spacingLeft=4;spacingRight=4;overflow=hidden;rotatable=0;points=[];portConstraint=eastwest;part=1;fontSize=11;" parent="e1cUlFGXbWlImAR1SOJB-5" vertex="1" connectable="0">
          <mxGeometry width="40" height="26" as="geometry" />
        </mxCell>
        <mxCell id="e1cUlFGXbWlImAR1SOJB-13" value="PasswordHash" style="shape=partialRectangle;top=0;left=0;right=0;bottom=0;align=left;verticalAlign=top;fillColor=none;spacingLeft=44;spacingRight=4;overflow=hidden;rotatable=0;points=[[0,0.5],[1,0.5]];portConstraint=eastwest;dropTarget=0;fontSize=11;" parent="e1cUlFGXbWlImAR1SOJB-0" vertex="1">
          <mxGeometry y="82" width="199" height="26" as="geometry" />
        </mxCell>
        <mxCell id="e1cUlFGXbWlImAR1SOJB-14" value="" style="shape=partialRectangle;top=0;left=0;bottom=0;fillColor=none;align=center;verticalAlign=top;spacingLeft=4;spacingRight=4;overflow=hidden;rotatable=0;points=[];portConstraint=eastwest;part=1;fontSize=11;" parent="e1cUlFGXbWlImAR1SOJB-13" vertex="1" connectable="0">
          <mxGeometry width="40" height="26" as="geometry" />
        </mxCell>
        <mxCell id="e1cUlFGXbWlImAR1SOJB-25" value="Employee" style="swimlane;fontStyle=0;childLayout=stackLayout;horizontal=1;startSize=26;fillColor=#CCE5FF;horizontalStack=0;resizeParent=1;resizeParentMax=0;resizeLast=0;collapsible=1;marginBottom=0;swimlaneFillColor=#ffffff;align=center;fontSize=13;" parent="r35dB6ONybMWZtxrlVqa-1" vertex="1">
          <mxGeometry x="-520" y="-600" width="199" height="264" as="geometry" />
        </mxCell>
        <mxCell id="e1cUlFGXbWlImAR1SOJB-26" value="EmployeeID" style="shape=partialRectangle;top=0;left=0;right=0;bottom=1;align=left;verticalAlign=middle;fillColor=none;spacingLeft=44;spacingRight=4;overflow=hidden;rotatable=0;points=[[0,0.5],[1,0.5]];portConstraint=eastwest;dropTarget=0;fontStyle=5;fontSize=11;" parent="e1cUlFGXbWlImAR1SOJB-25" vertex="1">
          <mxGeometry y="26" width="199" height="30" as="geometry" />
        </mxCell>
        <mxCell id="e1cUlFGXbWlImAR1SOJB-27" value="PK" style="shape=partialRectangle;top=0;left=0;bottom=0;fillColor=none;align=center;verticalAlign=middle;spacingLeft=4;spacingRight=4;overflow=hidden;rotatable=0;points=[];portConstraint=eastwest;part=1;fontSize=11;" parent="e1cUlFGXbWlImAR1SOJB-26" vertex="1" connectable="0">
          <mxGeometry width="40" height="30" as="geometry" />
        </mxCell>
        <mxCell id="e1cUlFGXbWlImAR1SOJB-28" value="FullName" style="shape=partialRectangle;top=0;left=0;right=0;bottom=0;align=left;verticalAlign=top;fillColor=none;spacingLeft=44;spacingRight=4;overflow=hidden;rotatable=0;points=[[0,0.5],[1,0.5]];portConstraint=eastwest;dropTarget=0;fontSize=11;" parent="e1cUlFGXbWlImAR1SOJB-25" vertex="1">
          <mxGeometry y="56" width="199" height="26" as="geometry" />
        </mxCell>
        <mxCell id="e1cUlFGXbWlImAR1SOJB-29" value="" style="shape=partialRectangle;top=0;left=0;bottom=0;fillColor=none;align=center;verticalAlign=top;spacingLeft=4;spacingRight=4;overflow=hidden;rotatable=0;points=[];portConstraint=eastwest;part=1;fontSize=11;" parent="e1cUlFGXbWlImAR1SOJB-28" vertex="1" connectable="0">
          <mxGeometry width="40" height="26" as="geometry" />
        </mxCell>
        <mxCell id="e1cUlFGXbWlImAR1SOJB-30" value="Login" style="shape=partialRectangle;top=0;left=0;right=0;bottom=0;align=left;verticalAlign=top;fillColor=none;spacingLeft=44;spacingRight=4;overflow=hidden;rotatable=0;points=[[0,0.5],[1,0.5]];portConstraint=eastwest;dropTarget=0;fontSize=11;" parent="e1cUlFGXbWlImAR1SOJB-25" vertex="1">
          <mxGeometry y="82" width="199" height="26" as="geometry" />
        </mxCell>
        <mxCell id="e1cUlFGXbWlImAR1SOJB-31" value="AK" style="shape=partialRectangle;top=0;left=0;bottom=0;fillColor=none;align=center;verticalAlign=top;spacingLeft=4;spacingRight=4;overflow=hidden;rotatable=0;points=[];portConstraint=eastwest;part=1;fontSize=11;" parent="e1cUlFGXbWlImAR1SOJB-30" vertex="1" connectable="0">
          <mxGeometry width="40" height="26" as="geometry" />
        </mxCell>
        <mxCell id="e1cUlFGXbWlImAR1SOJB-38" value="PasswordHash" style="shape=partialRectangle;top=0;left=0;right=0;bottom=0;align=left;verticalAlign=top;fillColor=none;spacingLeft=44;spacingRight=4;overflow=hidden;rotatable=0;points=[[0,0.5],[1,0.5]];portConstraint=eastwest;dropTarget=0;fontSize=11;" parent="e1cUlFGXbWlImAR1SOJB-25" vertex="1">
          <mxGeometry y="108" width="199" height="26" as="geometry" />
        </mxCell>
        <mxCell id="e1cUlFGXbWlImAR1SOJB-39" value="" style="shape=partialRectangle;top=0;left=0;bottom=0;fillColor=none;align=center;verticalAlign=top;spacingLeft=4;spacingRight=4;overflow=hidden;rotatable=0;points=[];portConstraint=eastwest;part=1;fontSize=11;" parent="e1cUlFGXbWlImAR1SOJB-38" vertex="1" connectable="0">
          <mxGeometry width="40" height="26" as="geometry" />
        </mxCell>
        <mxCell id="e1cUlFGXbWlImAR1SOJB-32" value="PhoneNumber" style="shape=partialRectangle;top=0;left=0;right=0;bottom=0;align=left;verticalAlign=top;fillColor=none;spacingLeft=44;spacingRight=4;overflow=hidden;rotatable=0;points=[[0,0.5],[1,0.5]];portConstraint=eastwest;dropTarget=0;fontSize=11;" parent="e1cUlFGXbWlImAR1SOJB-25" vertex="1">
          <mxGeometry y="134" width="199" height="26" as="geometry" />
        </mxCell>
        <mxCell id="e1cUlFGXbWlImAR1SOJB-33" value="UC" style="shape=partialRectangle;top=0;left=0;bottom=0;fillColor=none;align=center;verticalAlign=top;spacingLeft=4;spacingRight=4;overflow=hidden;rotatable=0;points=[];portConstraint=eastwest;part=1;fontSize=11;" parent="e1cUlFGXbWlImAR1SOJB-32" vertex="1" connectable="0">
          <mxGeometry width="40" height="26" as="geometry" />
        </mxCell>
        <mxCell id="e1cUlFGXbWlImAR1SOJB-34" value="JobPositionID" style="shape=partialRectangle;top=0;left=0;right=0;bottom=0;align=left;verticalAlign=top;fillColor=none;spacingLeft=44;spacingRight=4;overflow=hidden;rotatable=0;points=[[0,0.5],[1,0.5]];portConstraint=eastwest;dropTarget=0;fontSize=11;" parent="e1cUlFGXbWlImAR1SOJB-25" vertex="1">
          <mxGeometry y="160" width="199" height="26" as="geometry" />
        </mxCell>
        <mxCell id="e1cUlFGXbWlImAR1SOJB-35" value="FK1" style="shape=partialRectangle;top=0;left=0;bottom=0;fillColor=none;align=center;verticalAlign=top;spacingLeft=4;spacingRight=4;overflow=hidden;rotatable=0;points=[];portConstraint=eastwest;part=1;fontSize=11;" parent="e1cUlFGXbWlImAR1SOJB-34" vertex="1" connectable="0">
          <mxGeometry width="40" height="26" as="geometry" />
        </mxCell>
        <mxCell id="e1cUlFGXbWlImAR1SOJB-36" value="ContractExpirationDate" style="shape=partialRectangle;top=0;left=0;right=0;bottom=0;align=left;verticalAlign=top;fillColor=none;spacingLeft=44;spacingRight=4;overflow=hidden;rotatable=0;points=[[0,0.5],[1,0.5]];portConstraint=eastwest;dropTarget=0;fontSize=11;" parent="e1cUlFGXbWlImAR1SOJB-25" vertex="1">
          <mxGeometry y="186" width="199" height="26" as="geometry" />
        </mxCell>
        <mxCell id="e1cUlFGXbWlImAR1SOJB-37" value="" style="shape=partialRectangle;top=0;left=0;bottom=0;fillColor=none;align=center;verticalAlign=top;spacingLeft=4;spacingRight=4;overflow=hidden;rotatable=0;points=[];portConstraint=eastwest;part=1;fontSize=11;" parent="e1cUlFGXbWlImAR1SOJB-36" vertex="1" connectable="0">
          <mxGeometry width="40" height="26" as="geometry" />
        </mxCell>
        <mxCell id="e1cUlFGXbWlImAR1SOJB-40" value="SystemRoleID" style="shape=partialRectangle;top=0;left=0;right=0;bottom=0;align=left;verticalAlign=top;fillColor=none;spacingLeft=44;spacingRight=4;overflow=hidden;rotatable=0;points=[[0,0.5],[1,0.5]];portConstraint=eastwest;dropTarget=0;fontSize=11;" parent="e1cUlFGXbWlImAR1SOJB-25" vertex="1">
          <mxGeometry y="212" width="199" height="26" as="geometry" />
        </mxCell>
        <mxCell id="e1cUlFGXbWlImAR1SOJB-41" value="FK2" style="shape=partialRectangle;top=0;left=0;bottom=0;fillColor=none;align=center;verticalAlign=top;spacingLeft=4;spacingRight=4;overflow=hidden;rotatable=0;points=[];portConstraint=eastwest;part=1;fontSize=11;" parent="e1cUlFGXbWlImAR1SOJB-40" vertex="1" connectable="0">
          <mxGeometry width="40" height="26" as="geometry" />
        </mxCell>
        <mxCell id="e1cUlFGXbWlImAR1SOJB-158" value="CreatorAdministratorID" style="shape=partialRectangle;top=0;left=0;right=0;bottom=0;align=left;verticalAlign=top;fillColor=none;spacingLeft=44;spacingRight=4;overflow=hidden;rotatable=0;points=[[0,0.5],[1,0.5]];portConstraint=eastwest;dropTarget=0;fontSize=11;" parent="e1cUlFGXbWlImAR1SOJB-25" vertex="1">
          <mxGeometry y="238" width="199" height="26" as="geometry" />
        </mxCell>
        <mxCell id="e1cUlFGXbWlImAR1SOJB-159" value="FK3" style="shape=partialRectangle;top=0;left=0;bottom=0;fillColor=none;align=center;verticalAlign=top;spacingLeft=4;spacingRight=4;overflow=hidden;rotatable=0;points=[];portConstraint=eastwest;part=1;fontSize=11;" parent="e1cUlFGXbWlImAR1SOJB-158" vertex="1" connectable="0">
          <mxGeometry width="40" height="26" as="geometry" />
        </mxCell>
        <mxCell id="e1cUlFGXbWlImAR1SOJB-50" value="Country" style="swimlane;fontStyle=0;childLayout=stackLayout;horizontal=1;startSize=26;fillColor=#CCE5FF;horizontalStack=0;resizeParent=1;resizeParentMax=0;resizeLast=0;collapsible=1;marginBottom=0;swimlaneFillColor=#ffffff;align=center;fontSize=13;" parent="r35dB6ONybMWZtxrlVqa-1" vertex="1">
          <mxGeometry x="-840" y="-360" width="200" height="82" as="geometry" />
        </mxCell>
        <mxCell id="e1cUlFGXbWlImAR1SOJB-51" value="CountryID" style="shape=partialRectangle;top=0;left=0;right=0;bottom=1;align=left;verticalAlign=middle;fillColor=none;spacingLeft=44;spacingRight=4;overflow=hidden;rotatable=0;points=[[0,0.5],[1,0.5]];portConstraint=eastwest;dropTarget=0;fontStyle=5;fontSize=11;" parent="e1cUlFGXbWlImAR1SOJB-50" vertex="1">
          <mxGeometry y="26" width="200" height="30" as="geometry" />
        </mxCell>
        <mxCell id="e1cUlFGXbWlImAR1SOJB-52" value="PK" style="shape=partialRectangle;top=0;left=0;bottom=0;fillColor=none;align=center;verticalAlign=middle;spacingLeft=4;spacingRight=4;overflow=hidden;rotatable=0;points=[];portConstraint=eastwest;part=1;fontSize=11;" parent="e1cUlFGXbWlImAR1SOJB-51" vertex="1" connectable="0">
          <mxGeometry width="40" height="30" as="geometry" />
        </mxCell>
        <mxCell id="e1cUlFGXbWlImAR1SOJB-53" value="Name" style="shape=partialRectangle;top=0;left=0;right=0;bottom=0;align=left;verticalAlign=top;fillColor=none;spacingLeft=44;spacingRight=4;overflow=hidden;rotatable=0;points=[[0,0.5],[1,0.5]];portConstraint=eastwest;dropTarget=0;fontSize=11;" parent="e1cUlFGXbWlImAR1SOJB-50" vertex="1">
          <mxGeometry y="56" width="200" height="26" as="geometry" />
        </mxCell>
        <mxCell id="e1cUlFGXbWlImAR1SOJB-54" value="AK" style="shape=partialRectangle;top=0;left=0;bottom=0;fillColor=none;align=center;verticalAlign=top;spacingLeft=4;spacingRight=4;overflow=hidden;rotatable=0;points=[];portConstraint=eastwest;part=1;fontSize=11;" parent="e1cUlFGXbWlImAR1SOJB-53" vertex="1" connectable="0">
          <mxGeometry width="40" height="26" as="geometry" />
        </mxCell>
        <mxCell id="e1cUlFGXbWlImAR1SOJB-75" value="SystemRole" style="swimlane;fontStyle=0;childLayout=stackLayout;horizontal=1;startSize=26;fillColor=#CCE5FF;horizontalStack=0;resizeParent=1;resizeParentMax=0;resizeLast=0;collapsible=1;marginBottom=0;swimlaneFillColor=#ffffff;align=center;fontSize=13;" parent="r35dB6ONybMWZtxrlVqa-1" vertex="1">
          <mxGeometry x="-840" y="-481" width="200" height="82" as="geometry" />
        </mxCell>
        <mxCell id="e1cUlFGXbWlImAR1SOJB-76" value="SystemRoleID" style="shape=partialRectangle;top=0;left=0;right=0;bottom=1;align=left;verticalAlign=middle;fillColor=none;spacingLeft=44;spacingRight=4;overflow=hidden;rotatable=0;points=[[0,0.5],[1,0.5]];portConstraint=eastwest;dropTarget=0;fontStyle=5;fontSize=11;" parent="e1cUlFGXbWlImAR1SOJB-75" vertex="1">
          <mxGeometry y="26" width="200" height="30" as="geometry" />
        </mxCell>
        <mxCell id="e1cUlFGXbWlImAR1SOJB-77" value="PK" style="shape=partialRectangle;top=0;left=0;bottom=0;fillColor=none;align=center;verticalAlign=middle;spacingLeft=4;spacingRight=4;overflow=hidden;rotatable=0;points=[];portConstraint=eastwest;part=1;fontSize=11;" parent="e1cUlFGXbWlImAR1SOJB-76" vertex="1" connectable="0">
          <mxGeometry width="40" height="30" as="geometry" />
        </mxCell>
        <mxCell id="e1cUlFGXbWlImAR1SOJB-78" value="Name" style="shape=partialRectangle;top=0;left=0;right=0;bottom=0;align=left;verticalAlign=top;fillColor=none;spacingLeft=44;spacingRight=4;overflow=hidden;rotatable=0;points=[[0,0.5],[1,0.5]];portConstraint=eastwest;dropTarget=0;fontSize=11;" parent="e1cUlFGXbWlImAR1SOJB-75" vertex="1">
          <mxGeometry y="56" width="200" height="26" as="geometry" />
        </mxCell>
        <mxCell id="e1cUlFGXbWlImAR1SOJB-79" value="AK" style="shape=partialRectangle;top=0;left=0;bottom=0;fillColor=none;align=center;verticalAlign=top;spacingLeft=4;spacingRight=4;overflow=hidden;rotatable=0;points=[];portConstraint=eastwest;part=1;fontSize=11;" parent="e1cUlFGXbWlImAR1SOJB-78" vertex="1" connectable="0">
          <mxGeometry width="40" height="26" as="geometry" />
        </mxCell>
        <mxCell id="e1cUlFGXbWlImAR1SOJB-92" value="Client" style="swimlane;fontStyle=0;childLayout=stackLayout;horizontal=1;startSize=26;fillColor=#CCE5FF;horizontalStack=0;resizeParent=1;resizeParentMax=0;resizeLast=0;collapsible=1;marginBottom=0;swimlaneFillColor=#ffffff;align=center;fontSize=13;" parent="r35dB6ONybMWZtxrlVqa-1" vertex="1">
          <mxGeometry x="-840" y="-241" width="200" height="316" as="geometry" />
        </mxCell>
        <mxCell id="e1cUlFGXbWlImAR1SOJB-93" value="ClientID" style="shape=partialRectangle;top=0;left=0;right=0;bottom=1;align=left;verticalAlign=middle;fillColor=none;spacingLeft=44;spacingRight=4;overflow=hidden;rotatable=0;points=[[0,0.5],[1,0.5]];portConstraint=eastwest;dropTarget=0;fontStyle=5;fontSize=11;" parent="e1cUlFGXbWlImAR1SOJB-92" vertex="1">
          <mxGeometry y="26" width="200" height="30" as="geometry" />
        </mxCell>
        <mxCell id="e1cUlFGXbWlImAR1SOJB-94" value="PK" style="shape=partialRectangle;top=0;left=0;bottom=0;fillColor=none;align=center;verticalAlign=middle;spacingLeft=4;spacingRight=4;overflow=hidden;rotatable=0;points=[];portConstraint=eastwest;part=1;fontSize=11;" parent="e1cUlFGXbWlImAR1SOJB-93" vertex="1" connectable="0">
          <mxGeometry width="40" height="30" as="geometry" />
        </mxCell>
        <mxCell id="e1cUlFGXbWlImAR1SOJB-95" value="Name" style="shape=partialRectangle;top=0;left=0;right=0;bottom=0;align=left;verticalAlign=top;fillColor=none;spacingLeft=44;spacingRight=4;overflow=hidden;rotatable=0;points=[[0,0.5],[1,0.5]];portConstraint=eastwest;dropTarget=0;fontSize=11;" parent="e1cUlFGXbWlImAR1SOJB-92" vertex="1">
          <mxGeometry y="56" width="200" height="26" as="geometry" />
        </mxCell>
        <mxCell id="e1cUlFGXbWlImAR1SOJB-96" value="" style="shape=partialRectangle;top=0;left=0;bottom=0;fillColor=none;align=center;verticalAlign=top;spacingLeft=4;spacingRight=4;overflow=hidden;rotatable=0;points=[];portConstraint=eastwest;part=1;fontSize=11;" parent="e1cUlFGXbWlImAR1SOJB-95" vertex="1" connectable="0">
          <mxGeometry width="40" height="26" as="geometry" />
        </mxCell>
        <mxCell id="e1cUlFGXbWlImAR1SOJB-97" value="Login" style="shape=partialRectangle;top=0;left=0;right=0;bottom=0;align=left;verticalAlign=top;fillColor=none;spacingLeft=44;spacingRight=4;overflow=hidden;rotatable=0;points=[[0,0.5],[1,0.5]];portConstraint=eastwest;dropTarget=0;fontSize=11;" parent="e1cUlFGXbWlImAR1SOJB-92" vertex="1">
          <mxGeometry y="82" width="200" height="26" as="geometry" />
        </mxCell>
        <mxCell id="e1cUlFGXbWlImAR1SOJB-98" value="AK" style="shape=partialRectangle;top=0;left=0;bottom=0;fillColor=none;align=center;verticalAlign=top;spacingLeft=4;spacingRight=4;overflow=hidden;rotatable=0;points=[];portConstraint=eastwest;part=1;fontSize=11;" parent="e1cUlFGXbWlImAR1SOJB-97" vertex="1" connectable="0">
          <mxGeometry width="40" height="26" as="geometry" />
        </mxCell>
        <mxCell id="e1cUlFGXbWlImAR1SOJB-105" value="PasswordHash" style="shape=partialRectangle;top=0;left=0;right=0;bottom=0;align=left;verticalAlign=top;fillColor=none;spacingLeft=44;spacingRight=4;overflow=hidden;rotatable=0;points=[[0,0.5],[1,0.5]];portConstraint=eastwest;dropTarget=0;fontSize=11;" parent="e1cUlFGXbWlImAR1SOJB-92" vertex="1">
          <mxGeometry y="108" width="200" height="26" as="geometry" />
        </mxCell>
        <mxCell id="e1cUlFGXbWlImAR1SOJB-106" value="" style="shape=partialRectangle;top=0;left=0;bottom=0;fillColor=none;align=center;verticalAlign=top;spacingLeft=4;spacingRight=4;overflow=hidden;rotatable=0;points=[];portConstraint=eastwest;part=1;fontSize=11;" parent="e1cUlFGXbWlImAR1SOJB-105" vertex="1" connectable="0">
          <mxGeometry width="40" height="26" as="geometry" />
        </mxCell>
        <mxCell id="e1cUlFGXbWlImAR1SOJB-121" value="PhoneNumber" style="shape=partialRectangle;top=0;left=0;right=0;bottom=0;align=left;verticalAlign=top;fillColor=none;spacingLeft=44;spacingRight=4;overflow=hidden;rotatable=0;points=[[0,0.5],[1,0.5]];portConstraint=eastwest;dropTarget=0;fontSize=11;" parent="e1cUlFGXbWlImAR1SOJB-92" vertex="1">
          <mxGeometry y="134" width="200" height="26" as="geometry" />
        </mxCell>
        <mxCell id="e1cUlFGXbWlImAR1SOJB-122" value="UC1" style="shape=partialRectangle;top=0;left=0;bottom=0;fillColor=none;align=center;verticalAlign=top;spacingLeft=4;spacingRight=4;overflow=hidden;rotatable=0;points=[];portConstraint=eastwest;part=1;fontSize=11;" parent="e1cUlFGXbWlImAR1SOJB-121" vertex="1" connectable="0">
          <mxGeometry width="40" height="26" as="geometry" />
        </mxCell>
        <mxCell id="e1cUlFGXbWlImAR1SOJB-99" value="EMail" style="shape=partialRectangle;top=0;left=0;right=0;bottom=0;align=left;verticalAlign=top;fillColor=none;spacingLeft=44;spacingRight=4;overflow=hidden;rotatable=0;points=[[0,0.5],[1,0.5]];portConstraint=eastwest;dropTarget=0;fontSize=11;" parent="e1cUlFGXbWlImAR1SOJB-92" vertex="1">
          <mxGeometry y="160" width="200" height="26" as="geometry" />
        </mxCell>
        <mxCell id="e1cUlFGXbWlImAR1SOJB-100" value="UC2" style="shape=partialRectangle;top=0;left=0;bottom=0;fillColor=none;align=center;verticalAlign=top;spacingLeft=4;spacingRight=4;overflow=hidden;rotatable=0;points=[];portConstraint=eastwest;part=1;fontSize=11;" parent="e1cUlFGXbWlImAR1SOJB-99" vertex="1" connectable="0">
          <mxGeometry width="40" height="26" as="geometry" />
        </mxCell>
        <mxCell id="e1cUlFGXbWlImAR1SOJB-117" value="CountryID" style="shape=partialRectangle;top=0;left=0;right=0;bottom=0;align=left;verticalAlign=top;fillColor=none;spacingLeft=44;spacingRight=4;overflow=hidden;rotatable=0;points=[[0,0.5],[1,0.5]];portConstraint=eastwest;dropTarget=0;fontSize=11;" parent="e1cUlFGXbWlImAR1SOJB-92" vertex="1">
          <mxGeometry y="186" width="200" height="26" as="geometry" />
        </mxCell>
        <mxCell id="e1cUlFGXbWlImAR1SOJB-118" value="FK1" style="shape=partialRectangle;top=0;left=0;bottom=0;fillColor=none;align=center;verticalAlign=top;spacingLeft=4;spacingRight=4;overflow=hidden;rotatable=0;points=[];portConstraint=eastwest;part=1;fontSize=11;" parent="e1cUlFGXbWlImAR1SOJB-117" vertex="1" connectable="0">
          <mxGeometry width="40" height="26" as="geometry" />
        </mxCell>
        <mxCell id="e1cUlFGXbWlImAR1SOJB-103" value="PurchaseLevelID" style="shape=partialRectangle;top=0;left=0;right=0;bottom=0;align=left;verticalAlign=top;fillColor=none;spacingLeft=44;spacingRight=4;overflow=hidden;rotatable=0;points=[[0,0.5],[1,0.5]];portConstraint=eastwest;dropTarget=0;fontSize=11;" parent="e1cUlFGXbWlImAR1SOJB-92" vertex="1">
          <mxGeometry y="212" width="200" height="26" as="geometry" />
        </mxCell>
        <mxCell id="e1cUlFGXbWlImAR1SOJB-104" value="FK2" style="shape=partialRectangle;top=0;left=0;bottom=0;fillColor=none;align=center;verticalAlign=top;spacingLeft=4;spacingRight=4;overflow=hidden;rotatable=0;points=[];portConstraint=eastwest;part=1;fontSize=11;" parent="e1cUlFGXbWlImAR1SOJB-103" vertex="1" connectable="0">
          <mxGeometry width="40" height="26" as="geometry" />
        </mxCell>
        <mxCell id="e1cUlFGXbWlImAR1SOJB-107" value="BonusPoints" style="shape=partialRectangle;top=0;left=0;right=0;bottom=0;align=left;verticalAlign=top;fillColor=none;spacingLeft=44;spacingRight=4;overflow=hidden;rotatable=0;points=[[0,0.5],[1,0.5]];portConstraint=eastwest;dropTarget=0;fontSize=11;" parent="e1cUlFGXbWlImAR1SOJB-92" vertex="1">
          <mxGeometry y="238" width="200" height="26" as="geometry" />
        </mxCell>
        <mxCell id="e1cUlFGXbWlImAR1SOJB-108" value="" style="shape=partialRectangle;top=0;left=0;bottom=0;fillColor=none;align=center;verticalAlign=top;spacingLeft=4;spacingRight=4;overflow=hidden;rotatable=0;points=[];portConstraint=eastwest;part=1;fontSize=11;" parent="e1cUlFGXbWlImAR1SOJB-107" vertex="1" connectable="0">
          <mxGeometry width="40" height="26" as="geometry" />
        </mxCell>
        <mxCell id="e1cUlFGXbWlImAR1SOJB-109" value="RegistrationDateTime" style="shape=partialRectangle;top=0;left=0;right=0;bottom=0;align=left;verticalAlign=top;fillColor=none;spacingLeft=44;spacingRight=4;overflow=hidden;rotatable=0;points=[[0,0.5],[1,0.5]];portConstraint=eastwest;dropTarget=0;fontSize=11;" parent="e1cUlFGXbWlImAR1SOJB-92" vertex="1">
          <mxGeometry y="264" width="200" height="26" as="geometry" />
        </mxCell>
        <mxCell id="e1cUlFGXbWlImAR1SOJB-110" value="" style="shape=partialRectangle;top=0;left=0;bottom=0;fillColor=none;align=center;verticalAlign=top;spacingLeft=4;spacingRight=4;overflow=hidden;rotatable=0;points=[];portConstraint=eastwest;part=1;fontSize=11;" parent="e1cUlFGXbWlImAR1SOJB-109" vertex="1" connectable="0">
          <mxGeometry width="40" height="26" as="geometry" />
        </mxCell>
        <mxCell id="e1cUlFGXbWlImAR1SOJB-111" value="LastAuthorizationDateTime" style="shape=partialRectangle;top=0;left=0;right=0;bottom=0;align=left;verticalAlign=top;fillColor=none;spacingLeft=44;spacingRight=4;overflow=hidden;rotatable=0;points=[[0,0.5],[1,0.5]];portConstraint=eastwest;dropTarget=0;fontSize=11;" parent="e1cUlFGXbWlImAR1SOJB-92" vertex="1">
          <mxGeometry y="290" width="200" height="26" as="geometry" />
        </mxCell>
        <mxCell id="e1cUlFGXbWlImAR1SOJB-112" value="" style="shape=partialRectangle;top=0;left=0;bottom=0;fillColor=none;align=center;verticalAlign=top;spacingLeft=4;spacingRight=4;overflow=hidden;rotatable=0;points=[];portConstraint=eastwest;part=1;fontSize=11;" parent="e1cUlFGXbWlImAR1SOJB-111" vertex="1" connectable="0">
          <mxGeometry width="40" height="26" as="geometry" />
        </mxCell>
        <mxCell id="e1cUlFGXbWlImAR1SOJB-123" value="PurchaseLevel" style="swimlane;fontStyle=0;childLayout=stackLayout;horizontal=1;startSize=26;fillColor=#CCE5FF;horizontalStack=0;resizeParent=1;resizeParentMax=0;resizeLast=0;collapsible=1;marginBottom=0;swimlaneFillColor=#ffffff;align=center;fontSize=13;" parent="r35dB6ONybMWZtxrlVqa-1" vertex="1">
          <mxGeometry x="-1160" y="-80" width="200" height="82" as="geometry" />
        </mxCell>
        <mxCell id="e1cUlFGXbWlImAR1SOJB-124" value="PurchaseLevelID" style="shape=partialRectangle;top=0;left=0;right=0;bottom=1;align=left;verticalAlign=middle;fillColor=none;spacingLeft=44;spacingRight=4;overflow=hidden;rotatable=0;points=[[0,0.5],[1,0.5]];portConstraint=eastwest;dropTarget=0;fontStyle=5;fontSize=11;" parent="e1cUlFGXbWlImAR1SOJB-123" vertex="1">
          <mxGeometry y="26" width="200" height="30" as="geometry" />
        </mxCell>
        <mxCell id="e1cUlFGXbWlImAR1SOJB-125" value="PK" style="shape=partialRectangle;top=0;left=0;bottom=0;fillColor=none;align=center;verticalAlign=middle;spacingLeft=4;spacingRight=4;overflow=hidden;rotatable=0;points=[];portConstraint=eastwest;part=1;fontSize=11;" parent="e1cUlFGXbWlImAR1SOJB-124" vertex="1" connectable="0">
          <mxGeometry width="40" height="30" as="geometry" />
        </mxCell>
        <mxCell id="e1cUlFGXbWlImAR1SOJB-126" value="Name" style="shape=partialRectangle;top=0;left=0;right=0;bottom=0;align=left;verticalAlign=top;fillColor=none;spacingLeft=44;spacingRight=4;overflow=hidden;rotatable=0;points=[[0,0.5],[1,0.5]];portConstraint=eastwest;dropTarget=0;fontSize=11;" parent="e1cUlFGXbWlImAR1SOJB-123" vertex="1">
          <mxGeometry y="56" width="200" height="26" as="geometry" />
        </mxCell>
        <mxCell id="e1cUlFGXbWlImAR1SOJB-127" value="AK" style="shape=partialRectangle;top=0;left=0;bottom=0;fillColor=none;align=center;verticalAlign=top;spacingLeft=4;spacingRight=4;overflow=hidden;rotatable=0;points=[];portConstraint=eastwest;part=1;fontSize=11;" parent="e1cUlFGXbWlImAR1SOJB-126" vertex="1" connectable="0">
          <mxGeometry width="40" height="26" as="geometry" />
        </mxCell>
        <mxCell id="e1cUlFGXbWlImAR1SOJB-147" value="AuthorizationEmployeeLog" style="swimlane;fontStyle=0;childLayout=stackLayout;horizontal=1;startSize=26;fillColor=#CCE5FF;horizontalStack=0;resizeParent=1;resizeParentMax=0;resizeLast=0;collapsible=1;marginBottom=0;swimlaneFillColor=#ffffff;align=center;fontSize=13;" parent="r35dB6ONybMWZtxrlVqa-1" vertex="1">
          <mxGeometry x="-840" y="-800" width="200" height="82" as="geometry" />
        </mxCell>
        <mxCell id="e1cUlFGXbWlImAR1SOJB-148" value="EmployeeID" style="shape=partialRectangle;top=0;left=0;right=0;bottom=1;align=left;verticalAlign=middle;fillColor=none;spacingLeft=54;spacingRight=4;overflow=hidden;rotatable=0;points=[[0,0.5],[1,0.5]];portConstraint=eastwest;dropTarget=0;fontStyle=5;fontSize=11;strokeColor=none;" parent="e1cUlFGXbWlImAR1SOJB-147" vertex="1">
          <mxGeometry y="26" width="200" height="30" as="geometry" />
        </mxCell>
        <mxCell id="e1cUlFGXbWlImAR1SOJB-149" value="PK, FK" style="shape=partialRectangle;top=0;left=0;bottom=0;fillColor=none;align=center;verticalAlign=middle;spacingLeft=4;spacingRight=4;overflow=hidden;rotatable=0;points=[];portConstraint=eastwest;part=1;fontSize=11;" parent="e1cUlFGXbWlImAR1SOJB-148" vertex="1" connectable="0">
          <mxGeometry width="50" height="30" as="geometry" />
        </mxCell>
        <mxCell id="e1cUlFGXbWlImAR1SOJB-150" value="AuthorizationDateTime" style="shape=partialRectangle;top=0;left=0;right=0;bottom=0;align=left;verticalAlign=top;fillColor=none;spacingLeft=54;spacingRight=4;overflow=hidden;rotatable=0;points=[[0,0.5],[1,0.5]];portConstraint=eastwest;dropTarget=0;fontSize=11;fontStyle=5" parent="e1cUlFGXbWlImAR1SOJB-147" vertex="1">
          <mxGeometry y="56" width="200" height="26" as="geometry" />
        </mxCell>
        <mxCell id="e1cUlFGXbWlImAR1SOJB-151" value="PK" style="shape=partialRectangle;top=0;left=0;bottom=0;fillColor=none;align=center;verticalAlign=top;spacingLeft=4;spacingRight=4;overflow=hidden;rotatable=0;points=[];portConstraint=eastwest;part=1;fontSize=11;" parent="e1cUlFGXbWlImAR1SOJB-150" vertex="1" connectable="0">
          <mxGeometry width="50" height="26" as="geometry" />
        </mxCell>
        <mxCell id="e1cUlFGXbWlImAR1SOJB-152" value="JobPosition" style="swimlane;fontStyle=0;childLayout=stackLayout;horizontal=1;startSize=26;fillColor=#CCE5FF;horizontalStack=0;resizeParent=1;resizeParentMax=0;resizeLast=0;collapsible=1;marginBottom=0;swimlaneFillColor=#ffffff;align=center;fontSize=13;" parent="r35dB6ONybMWZtxrlVqa-1" vertex="1">
          <mxGeometry x="-840" y="-601" width="200" height="82" as="geometry" />
        </mxCell>
        <mxCell id="e1cUlFGXbWlImAR1SOJB-153" value="JobPositionID" style="shape=partialRectangle;top=0;left=0;right=0;bottom=1;align=left;verticalAlign=middle;fillColor=none;spacingLeft=44;spacingRight=4;overflow=hidden;rotatable=0;points=[[0,0.5],[1,0.5]];portConstraint=eastwest;dropTarget=0;fontStyle=5;fontSize=11;" parent="e1cUlFGXbWlImAR1SOJB-152" vertex="1">
          <mxGeometry y="26" width="200" height="30" as="geometry" />
        </mxCell>
        <mxCell id="e1cUlFGXbWlImAR1SOJB-154" value="PK" style="shape=partialRectangle;top=0;left=0;bottom=0;fillColor=none;align=center;verticalAlign=middle;spacingLeft=4;spacingRight=4;overflow=hidden;rotatable=0;points=[];portConstraint=eastwest;part=1;fontSize=11;" parent="e1cUlFGXbWlImAR1SOJB-153" vertex="1" connectable="0">
          <mxGeometry width="40" height="30" as="geometry" />
        </mxCell>
        <mxCell id="e1cUlFGXbWlImAR1SOJB-155" value="Name" style="shape=partialRectangle;top=0;left=0;right=0;bottom=0;align=left;verticalAlign=top;fillColor=none;spacingLeft=44;spacingRight=4;overflow=hidden;rotatable=0;points=[[0,0.5],[1,0.5]];portConstraint=eastwest;dropTarget=0;fontSize=11;" parent="e1cUlFGXbWlImAR1SOJB-152" vertex="1">
          <mxGeometry y="56" width="200" height="26" as="geometry" />
        </mxCell>
        <mxCell id="e1cUlFGXbWlImAR1SOJB-156" value="AK" style="shape=partialRectangle;top=0;left=0;bottom=0;fillColor=none;align=center;verticalAlign=top;spacingLeft=4;spacingRight=4;overflow=hidden;rotatable=0;points=[];portConstraint=eastwest;part=1;fontSize=11;" parent="e1cUlFGXbWlImAR1SOJB-155" vertex="1" connectable="0">
          <mxGeometry width="40" height="26" as="geometry" />
        </mxCell>
        <mxCell id="e1cUlFGXbWlImAR1SOJB-157" style="edgeStyle=entityRelationEdgeStyle;rounded=1;orthogonalLoop=1;jettySize=auto;html=1;exitX=1;exitY=0.5;exitDx=0;exitDy=0;entryX=0;entryY=0.5;entryDx=0;entryDy=0;startArrow=ERzeroToMany;startFill=0;endArrow=ERmandOne;endFill=0;" parent="r35dB6ONybMWZtxrlVqa-1" source="e1cUlFGXbWlImAR1SOJB-148" target="e1cUlFGXbWlImAR1SOJB-26" edge="1">
          <mxGeometry relative="1" as="geometry" />
        </mxCell>
        <mxCell id="e1cUlFGXbWlImAR1SOJB-160" style="edgeStyle=orthogonalEdgeStyle;rounded=1;orthogonalLoop=1;jettySize=auto;html=1;exitX=1;exitY=0.5;exitDx=0;exitDy=0;entryX=1;entryY=0.5;entryDx=0;entryDy=0;startArrow=ERzeroToMany;startFill=0;endArrow=ERmandOne;endFill=0;" parent="r35dB6ONybMWZtxrlVqa-1" source="e1cUlFGXbWlImAR1SOJB-158" target="e1cUlFGXbWlImAR1SOJB-1" edge="1">
          <mxGeometry relative="1" as="geometry">
            <Array as="points">
              <mxPoint x="-280" y="-349" />
              <mxPoint x="-280" y="-759" />
            </Array>
          </mxGeometry>
        </mxCell>
        <mxCell id="e1cUlFGXbWlImAR1SOJB-161" style="edgeStyle=entityRelationEdgeStyle;rounded=1;orthogonalLoop=1;jettySize=auto;html=1;exitX=0;exitY=0.5;exitDx=0;exitDy=0;entryX=1;entryY=0.5;entryDx=0;entryDy=0;startArrow=ERzeroToMany;startFill=0;endArrow=ERmandOne;endFill=0;" parent="r35dB6ONybMWZtxrlVqa-1" source="e1cUlFGXbWlImAR1SOJB-40" target="e1cUlFGXbWlImAR1SOJB-76" edge="1">
          <mxGeometry relative="1" as="geometry" />
        </mxCell>
        <mxCell id="e1cUlFGXbWlImAR1SOJB-162" style="edgeStyle=entityRelationEdgeStyle;rounded=1;orthogonalLoop=1;jettySize=auto;html=1;exitX=0;exitY=0.5;exitDx=0;exitDy=0;entryX=1;entryY=0.5;entryDx=0;entryDy=0;startArrow=ERzeroToMany;startFill=0;endArrow=ERzeroToOne;endFill=0;" parent="r35dB6ONybMWZtxrlVqa-1" source="e1cUlFGXbWlImAR1SOJB-34" target="e1cUlFGXbWlImAR1SOJB-153" edge="1">
          <mxGeometry relative="1" as="geometry" />
        </mxCell>
        <mxCell id="e1cUlFGXbWlImAR1SOJB-163" style="edgeStyle=orthogonalEdgeStyle;rounded=1;orthogonalLoop=1;jettySize=auto;html=1;exitX=0;exitY=0.5;exitDx=0;exitDy=0;entryX=0;entryY=0.5;entryDx=0;entryDy=0;startArrow=ERzeroToMany;startFill=0;endArrow=ERmandOne;endFill=0;" parent="r35dB6ONybMWZtxrlVqa-1" source="e1cUlFGXbWlImAR1SOJB-117" target="e1cUlFGXbWlImAR1SOJB-51" edge="1">
          <mxGeometry relative="1" as="geometry">
            <Array as="points">
              <mxPoint x="-880" y="-42" />
              <mxPoint x="-880" y="-319" />
            </Array>
          </mxGeometry>
        </mxCell>
        <mxCell id="e1cUlFGXbWlImAR1SOJB-164" style="edgeStyle=entityRelationEdgeStyle;rounded=1;orthogonalLoop=1;jettySize=auto;html=1;exitX=0;exitY=0.5;exitDx=0;exitDy=0;entryX=1;entryY=0.5;entryDx=0;entryDy=0;startArrow=ERzeroToMany;startFill=0;endArrow=ERmandOne;endFill=0;" parent="r35dB6ONybMWZtxrlVqa-1" source="e1cUlFGXbWlImAR1SOJB-103" target="e1cUlFGXbWlImAR1SOJB-124" edge="1">
          <mxGeometry relative="1" as="geometry" />
        </mxCell>
        <mxCell id="11MfjNws7Z_111s8Z915-0" value="Warehouse" style="swimlane;fontStyle=0;childLayout=stackLayout;horizontal=1;startSize=26;fillColor=#fff2cc;horizontalStack=0;resizeParent=1;resizeParentMax=0;resizeLast=0;collapsible=1;marginBottom=0;swimlaneFillColor=#ffffff;align=center;fontSize=13;strokeColor=#d6b656;gradientColor=#ffd966;" parent="r35dB6ONybMWZtxrlVqa-1" vertex="1">
          <mxGeometry x="300" y="766" width="200" height="160" as="geometry" />
        </mxCell>
        <mxCell id="11MfjNws7Z_111s8Z915-1" value="WarehouseID" style="shape=partialRectangle;top=0;left=0;right=0;bottom=1;align=left;verticalAlign=middle;fillColor=none;spacingLeft=44;spacingRight=4;overflow=hidden;rotatable=0;points=[[0,0.5],[1,0.5]];portConstraint=eastwest;dropTarget=0;fontStyle=5;fontSize=11;" parent="11MfjNws7Z_111s8Z915-0" vertex="1">
          <mxGeometry y="26" width="200" height="30" as="geometry" />
        </mxCell>
        <mxCell id="11MfjNws7Z_111s8Z915-2" value="PK" style="shape=partialRectangle;top=0;left=0;bottom=0;fillColor=none;align=center;verticalAlign=middle;spacingLeft=4;spacingRight=4;overflow=hidden;rotatable=0;points=[];portConstraint=eastwest;part=1;fontSize=11;" parent="11MfjNws7Z_111s8Z915-1" vertex="1" connectable="0">
          <mxGeometry width="40" height="30" as="geometry" />
        </mxCell>
        <mxCell id="11MfjNws7Z_111s8Z915-3" value="Name" style="shape=partialRectangle;top=0;left=0;right=0;bottom=0;align=left;verticalAlign=top;fillColor=none;spacingLeft=44;spacingRight=4;overflow=hidden;rotatable=0;points=[[0,0.5],[1,0.5]];portConstraint=eastwest;dropTarget=0;fontSize=11;" parent="11MfjNws7Z_111s8Z915-0" vertex="1">
          <mxGeometry y="56" width="200" height="26" as="geometry" />
        </mxCell>
        <mxCell id="11MfjNws7Z_111s8Z915-4" value="AK" style="shape=partialRectangle;top=0;left=0;bottom=0;fillColor=none;align=center;verticalAlign=top;spacingLeft=4;spacingRight=4;overflow=hidden;rotatable=0;points=[];portConstraint=eastwest;part=1;fontSize=11;" parent="11MfjNws7Z_111s8Z915-3" vertex="1" connectable="0">
          <mxGeometry width="40" height="26" as="geometry" />
        </mxCell>
        <mxCell id="11MfjNws7Z_111s8Z915-5" value="Address" style="shape=partialRectangle;top=0;left=0;right=0;bottom=0;align=left;verticalAlign=top;fillColor=none;spacingLeft=44;spacingRight=4;overflow=hidden;rotatable=0;points=[[0,0.5],[1,0.5]];portConstraint=eastwest;dropTarget=0;fontSize=11;" parent="11MfjNws7Z_111s8Z915-0" vertex="1">
          <mxGeometry y="82" width="200" height="26" as="geometry" />
        </mxCell>
        <mxCell id="11MfjNws7Z_111s8Z915-6" value="" style="shape=partialRectangle;top=0;left=0;bottom=0;fillColor=none;align=center;verticalAlign=top;spacingLeft=4;spacingRight=4;overflow=hidden;rotatable=0;points=[];portConstraint=eastwest;part=1;fontSize=11;" parent="11MfjNws7Z_111s8Z915-5" vertex="1" connectable="0">
          <mxGeometry width="40" height="26" as="geometry" />
        </mxCell>
        <mxCell id="11MfjNws7Z_111s8Z915-7" value="OpeningHours" style="shape=partialRectangle;top=0;left=0;right=0;bottom=0;align=left;verticalAlign=top;fillColor=none;spacingLeft=44;spacingRight=4;overflow=hidden;rotatable=0;points=[[0,0.5],[1,0.5]];portConstraint=eastwest;dropTarget=0;fontSize=11;" parent="11MfjNws7Z_111s8Z915-0" vertex="1">
          <mxGeometry y="108" width="200" height="26" as="geometry" />
        </mxCell>
        <mxCell id="11MfjNws7Z_111s8Z915-8" value="" style="shape=partialRectangle;top=0;left=0;bottom=0;fillColor=none;align=center;verticalAlign=top;spacingLeft=4;spacingRight=4;overflow=hidden;rotatable=0;points=[];portConstraint=eastwest;part=1;fontSize=11;" parent="11MfjNws7Z_111s8Z915-7" vertex="1" connectable="0">
          <mxGeometry width="40" height="26" as="geometry" />
        </mxCell>
        <mxCell id="11MfjNws7Z_111s8Z915-9" value="" style="shape=partialRectangle;top=0;left=0;right=0;bottom=0;align=left;verticalAlign=top;fillColor=none;spacingLeft=44;spacingRight=4;overflow=hidden;rotatable=0;points=[[0,0.5],[1,0.5]];portConstraint=eastwest;dropTarget=0;fontSize=11;" parent="11MfjNws7Z_111s8Z915-0" vertex="1">
          <mxGeometry y="134" width="200" height="26" as="geometry" />
        </mxCell>
        <mxCell id="11MfjNws7Z_111s8Z915-10" value="" style="shape=partialRectangle;top=0;left=0;bottom=0;fillColor=none;align=center;verticalAlign=top;spacingLeft=4;spacingRight=4;overflow=hidden;rotatable=0;points=[];portConstraint=eastwest;part=1;fontSize=11;" parent="11MfjNws7Z_111s8Z915-9" vertex="1" connectable="0">
          <mxGeometry width="40" height="26" as="geometry" />
        </mxCell>
        <mxCell id="11MfjNws7Z_111s8Z915-23" value="Pick-up point" style="swimlane;fontStyle=0;childLayout=stackLayout;horizontal=1;startSize=26;fillColor=#fff2cc;horizontalStack=0;resizeParent=1;resizeParentMax=0;resizeLast=0;collapsible=1;marginBottom=0;swimlaneFillColor=#ffffff;align=center;fontSize=13;strokeColor=#d6b656;gradientColor=#ffd966;" parent="r35dB6ONybMWZtxrlVqa-1" vertex="1">
          <mxGeometry x="300" y="536" width="200" height="186" as="geometry" />
        </mxCell>
        <mxCell id="11MfjNws7Z_111s8Z915-24" value="PickUpPointID" style="shape=partialRectangle;top=0;left=0;right=0;bottom=1;align=left;verticalAlign=middle;spacingLeft=44;spacingRight=4;overflow=hidden;rotatable=0;points=[[0,0.5],[1,0.5]];portConstraint=eastwest;dropTarget=0;fontStyle=5;fontSize=11;" parent="11MfjNws7Z_111s8Z915-23" vertex="1">
          <mxGeometry y="26" width="200" height="30" as="geometry" />
        </mxCell>
        <mxCell id="11MfjNws7Z_111s8Z915-25" value="PK" style="shape=partialRectangle;top=0;left=0;bottom=0;fillColor=none;align=center;verticalAlign=middle;spacingLeft=4;spacingRight=4;overflow=hidden;rotatable=0;points=[];portConstraint=eastwest;part=1;fontSize=11;" parent="11MfjNws7Z_111s8Z915-24" vertex="1" connectable="0">
          <mxGeometry width="40" height="30" as="geometry" />
        </mxCell>
        <mxCell id="11MfjNws7Z_111s8Z915-26" value="Name" style="shape=partialRectangle;top=0;left=0;right=0;bottom=0;align=left;verticalAlign=top;fillColor=none;spacingLeft=44;spacingRight=4;overflow=hidden;rotatable=0;points=[[0,0.5],[1,0.5]];portConstraint=eastwest;dropTarget=0;fontSize=11;" parent="11MfjNws7Z_111s8Z915-23" vertex="1">
          <mxGeometry y="56" width="200" height="26" as="geometry" />
        </mxCell>
        <mxCell id="11MfjNws7Z_111s8Z915-27" value="AK" style="shape=partialRectangle;top=0;left=0;bottom=0;fillColor=none;align=center;verticalAlign=top;spacingLeft=4;spacingRight=4;overflow=hidden;rotatable=0;points=[];portConstraint=eastwest;part=1;fontSize=11;" parent="11MfjNws7Z_111s8Z915-26" vertex="1" connectable="0">
          <mxGeometry width="40" height="26" as="geometry" />
        </mxCell>
        <mxCell id="11MfjNws7Z_111s8Z915-28" value="Address" style="shape=partialRectangle;top=0;left=0;right=0;bottom=0;align=left;verticalAlign=top;fillColor=none;spacingLeft=44;spacingRight=4;overflow=hidden;rotatable=0;points=[[0,0.5],[1,0.5]];portConstraint=eastwest;dropTarget=0;fontSize=11;" parent="11MfjNws7Z_111s8Z915-23" vertex="1">
          <mxGeometry y="82" width="200" height="26" as="geometry" />
        </mxCell>
        <mxCell id="11MfjNws7Z_111s8Z915-29" value="" style="shape=partialRectangle;top=0;left=0;bottom=0;fillColor=none;align=center;verticalAlign=top;spacingLeft=4;spacingRight=4;overflow=hidden;rotatable=0;points=[];portConstraint=eastwest;part=1;fontSize=11;" parent="11MfjNws7Z_111s8Z915-28" vertex="1" connectable="0">
          <mxGeometry width="40" height="26" as="geometry" />
        </mxCell>
        <mxCell id="11MfjNws7Z_111s8Z915-30" value="WorkingTime" style="shape=partialRectangle;top=0;left=0;right=0;bottom=0;align=left;verticalAlign=top;fillColor=none;spacingLeft=44;spacingRight=4;overflow=hidden;rotatable=0;points=[[0,0.5],[1,0.5]];portConstraint=eastwest;dropTarget=0;fontSize=11;" parent="11MfjNws7Z_111s8Z915-23" vertex="1">
          <mxGeometry y="108" width="200" height="26" as="geometry" />
        </mxCell>
        <mxCell id="11MfjNws7Z_111s8Z915-31" value="" style="shape=partialRectangle;top=0;left=0;bottom=0;fillColor=none;align=center;verticalAlign=top;spacingLeft=4;spacingRight=4;overflow=hidden;rotatable=0;points=[];portConstraint=eastwest;part=1;fontSize=11;" parent="11MfjNws7Z_111s8Z915-30" vertex="1" connectable="0">
          <mxGeometry width="40" height="26" as="geometry" />
        </mxCell>
        <mxCell id="11MfjNws7Z_111s8Z915-32" value="" style="shape=partialRectangle;top=0;left=0;right=0;bottom=0;align=left;verticalAlign=top;fillColor=none;spacingLeft=44;spacingRight=4;overflow=hidden;rotatable=0;points=[[0,0.5],[1,0.5]];portConstraint=eastwest;dropTarget=0;fontSize=11;" parent="11MfjNws7Z_111s8Z915-23" vertex="1">
          <mxGeometry y="134" width="200" height="26" as="geometry" />
        </mxCell>
        <mxCell id="11MfjNws7Z_111s8Z915-33" value="" style="shape=partialRectangle;top=0;left=0;bottom=0;fillColor=none;align=center;verticalAlign=top;spacingLeft=4;spacingRight=4;overflow=hidden;rotatable=0;points=[];portConstraint=eastwest;part=1;fontSize=11;" parent="11MfjNws7Z_111s8Z915-32" vertex="1" connectable="0">
          <mxGeometry width="40" height="26" as="geometry" />
        </mxCell>
        <mxCell id="11MfjNws7Z_111s8Z915-34" value="" style="shape=partialRectangle;top=0;left=0;right=0;bottom=0;align=left;verticalAlign=top;fillColor=none;spacingLeft=44;spacingRight=4;overflow=hidden;rotatable=0;points=[[0,0.5],[1,0.5]];portConstraint=eastwest;dropTarget=0;fontSize=11;" parent="11MfjNws7Z_111s8Z915-23" vertex="1">
          <mxGeometry y="160" width="200" height="26" as="geometry" />
        </mxCell>
        <mxCell id="11MfjNws7Z_111s8Z915-35" value="" style="shape=partialRectangle;top=0;left=0;bottom=0;fillColor=none;align=center;verticalAlign=top;spacingLeft=4;spacingRight=4;overflow=hidden;rotatable=0;points=[];portConstraint=eastwest;part=1;fontSize=11;" parent="11MfjNws7Z_111s8Z915-34" vertex="1" connectable="0">
          <mxGeometry width="40" height="26" as="geometry" />
        </mxCell>
        <mxCell id="11MfjNws7Z_111s8Z915-46" value="Catalog section" style="swimlane;fontStyle=0;childLayout=stackLayout;horizontal=1;startSize=26;fillColor=#fff2cc;horizontalStack=0;resizeParent=1;resizeParentMax=0;resizeLast=0;collapsible=1;marginBottom=0;swimlaneFillColor=#ffffff;align=center;fontSize=13;strokeColor=#d6b656;gradientColor=#ffd966;" parent="r35dB6ONybMWZtxrlVqa-1" vertex="1">
          <mxGeometry x="-480" y="288" width="200" height="108" as="geometry" />
        </mxCell>
        <mxCell id="11MfjNws7Z_111s8Z915-47" value="CatalogSectionID" style="shape=partialRectangle;top=0;left=0;right=0;bottom=1;align=left;verticalAlign=middle;fillColor=none;spacingLeft=44;spacingRight=4;overflow=hidden;rotatable=0;points=[[0,0.5],[1,0.5]];portConstraint=eastwest;dropTarget=0;fontStyle=5;fontSize=11;" parent="11MfjNws7Z_111s8Z915-46" vertex="1">
          <mxGeometry y="26" width="200" height="30" as="geometry" />
        </mxCell>
        <mxCell id="11MfjNws7Z_111s8Z915-48" value="PK" style="shape=partialRectangle;top=0;left=0;bottom=0;fillColor=none;align=center;verticalAlign=middle;spacingLeft=4;spacingRight=4;overflow=hidden;rotatable=0;points=[];portConstraint=eastwest;part=1;fontSize=11;" parent="11MfjNws7Z_111s8Z915-47" vertex="1" connectable="0">
          <mxGeometry width="40" height="30" as="geometry" />
        </mxCell>
        <mxCell id="11MfjNws7Z_111s8Z915-49" value="Name" style="shape=partialRectangle;top=0;left=0;right=0;bottom=0;align=left;verticalAlign=top;fillColor=none;spacingLeft=44;spacingRight=4;overflow=hidden;rotatable=0;points=[[0,0.5],[1,0.5]];portConstraint=eastwest;dropTarget=0;fontSize=11;" parent="11MfjNws7Z_111s8Z915-46" vertex="1">
          <mxGeometry y="56" width="200" height="26" as="geometry" />
        </mxCell>
        <mxCell id="11MfjNws7Z_111s8Z915-50" value="AK" style="shape=partialRectangle;top=0;left=0;bottom=0;fillColor=none;align=center;verticalAlign=top;spacingLeft=4;spacingRight=4;overflow=hidden;rotatable=0;points=[];portConstraint=eastwest;part=1;fontSize=11;" parent="11MfjNws7Z_111s8Z915-49" vertex="1" connectable="0">
          <mxGeometry width="40" height="26" as="geometry" />
        </mxCell>
        <mxCell id="11MfjNws7Z_111s8Z915-51" value="ParentSectionID" style="shape=partialRectangle;top=0;left=0;right=0;bottom=0;align=left;verticalAlign=top;fillColor=none;spacingLeft=44;spacingRight=4;overflow=hidden;rotatable=0;points=[[0,0.5],[1,0.5]];portConstraint=eastwest;dropTarget=0;fontSize=11;" parent="11MfjNws7Z_111s8Z915-46" vertex="1">
          <mxGeometry y="82" width="200" height="26" as="geometry" />
        </mxCell>
        <mxCell id="11MfjNws7Z_111s8Z915-52" value="FK1" style="shape=partialRectangle;top=0;left=0;bottom=0;fillColor=none;align=center;verticalAlign=top;spacingLeft=4;spacingRight=4;overflow=hidden;rotatable=0;points=[];portConstraint=eastwest;part=1;fontSize=11;" parent="11MfjNws7Z_111s8Z915-51" vertex="1" connectable="0">
          <mxGeometry width="40" height="26" as="geometry" />
        </mxCell>
        <mxCell id="TpzFjVhXesu7cyExVjw_-0" style="edgeStyle=elbowEdgeStyle;rounded=1;orthogonalLoop=1;jettySize=auto;html=1;exitX=0;exitY=0.5;exitDx=0;exitDy=0;entryX=0;entryY=0.5;entryDx=0;entryDy=0;startArrow=ERmandOne;startFill=0;endArrow=ERmandOne;endFill=0;" parent="11MfjNws7Z_111s8Z915-46" source="11MfjNws7Z_111s8Z915-51" target="11MfjNws7Z_111s8Z915-47" edge="1">
          <mxGeometry relative="1" as="geometry">
            <mxPoint x="210" y="139" as="sourcePoint" />
            <mxPoint x="-10" y="51" as="targetPoint" />
            <Array as="points">
              <mxPoint x="-30" y="70" />
            </Array>
          </mxGeometry>
        </mxCell>
        <mxCell id="11MfjNws7Z_111s8Z915-69" value="Product" style="swimlane;fontStyle=0;childLayout=stackLayout;horizontal=1;startSize=26;fillColor=#fff2cc;horizontalStack=0;resizeParent=1;resizeParentMax=0;resizeLast=0;collapsible=1;marginBottom=0;swimlaneFillColor=#ffffff;align=center;fontSize=13;strokeColor=#d6b656;gradientColor=#ffd966;" parent="r35dB6ONybMWZtxrlVqa-1" vertex="1">
          <mxGeometry x="-70" y="70" width="200" height="238" as="geometry" />
        </mxCell>
        <mxCell id="11MfjNws7Z_111s8Z915-70" value="ProductID" style="shape=partialRectangle;top=0;left=0;right=0;bottom=1;align=left;verticalAlign=middle;fillColor=none;spacingLeft=44;spacingRight=4;overflow=hidden;rotatable=0;points=[[0,0.5],[1,0.5]];portConstraint=eastwest;dropTarget=0;fontStyle=5;fontSize=11;" parent="11MfjNws7Z_111s8Z915-69" vertex="1">
          <mxGeometry y="26" width="200" height="30" as="geometry" />
        </mxCell>
        <mxCell id="11MfjNws7Z_111s8Z915-71" value="PK" style="shape=partialRectangle;top=0;left=0;bottom=0;fillColor=none;align=center;verticalAlign=middle;spacingLeft=4;spacingRight=4;overflow=hidden;rotatable=0;points=[];portConstraint=eastwest;part=1;fontSize=11;" parent="11MfjNws7Z_111s8Z915-70" vertex="1" connectable="0">
          <mxGeometry width="40" height="30" as="geometry" />
        </mxCell>
        <mxCell id="11MfjNws7Z_111s8Z915-72" value="Code" style="shape=partialRectangle;top=0;left=0;right=0;bottom=0;align=left;verticalAlign=top;fillColor=none;spacingLeft=44;spacingRight=4;overflow=hidden;rotatable=0;points=[[0,0.5],[1,0.5]];portConstraint=eastwest;dropTarget=0;fontSize=11;" parent="11MfjNws7Z_111s8Z915-69" vertex="1">
          <mxGeometry y="56" width="200" height="26" as="geometry" />
        </mxCell>
        <mxCell id="11MfjNws7Z_111s8Z915-73" value="AK" style="shape=partialRectangle;top=0;left=0;bottom=0;fillColor=none;align=center;verticalAlign=top;spacingLeft=4;spacingRight=4;overflow=hidden;rotatable=0;points=[];portConstraint=eastwest;part=1;fontSize=11;" parent="11MfjNws7Z_111s8Z915-72" vertex="1" connectable="0">
          <mxGeometry width="40" height="26" as="geometry" />
        </mxCell>
        <mxCell id="11MfjNws7Z_111s8Z915-74" value="BrandID" style="shape=partialRectangle;top=0;left=0;right=0;bottom=0;align=left;verticalAlign=top;fillColor=none;spacingLeft=44;spacingRight=4;overflow=hidden;rotatable=0;points=[[0,0.5],[1,0.5]];portConstraint=eastwest;dropTarget=0;fontSize=11;" parent="11MfjNws7Z_111s8Z915-69" vertex="1">
          <mxGeometry y="82" width="200" height="26" as="geometry" />
        </mxCell>
        <mxCell id="11MfjNws7Z_111s8Z915-75" value="AK,FK1" style="shape=partialRectangle;top=0;left=0;bottom=0;fillColor=none;align=center;verticalAlign=top;spacingLeft=4;spacingRight=4;overflow=hidden;rotatable=0;points=[];portConstraint=eastwest;part=1;fontSize=9;" parent="11MfjNws7Z_111s8Z915-74" vertex="1" connectable="0">
          <mxGeometry width="40" height="26" as="geometry" />
        </mxCell>
        <mxCell id="11MfjNws7Z_111s8Z915-76" value="Name" style="shape=partialRectangle;top=0;left=0;right=0;bottom=0;align=left;verticalAlign=top;fillColor=none;spacingLeft=44;spacingRight=4;overflow=hidden;rotatable=0;points=[[0,0.5],[1,0.5]];portConstraint=eastwest;dropTarget=0;fontSize=11;" parent="11MfjNws7Z_111s8Z915-69" vertex="1">
          <mxGeometry y="108" width="200" height="26" as="geometry" />
        </mxCell>
        <mxCell id="11MfjNws7Z_111s8Z915-77" value="" style="shape=partialRectangle;top=0;left=0;bottom=0;fillColor=none;align=center;verticalAlign=top;spacingLeft=4;spacingRight=4;overflow=hidden;rotatable=0;points=[];portConstraint=eastwest;part=1;fontSize=11;" parent="11MfjNws7Z_111s8Z915-76" vertex="1" connectable="0">
          <mxGeometry width="40" height="26" as="geometry" />
        </mxCell>
        <mxCell id="11MfjNws7Z_111s8Z915-80" value="Price" style="shape=partialRectangle;top=0;left=0;right=0;bottom=0;align=left;verticalAlign=top;fillColor=none;spacingLeft=44;spacingRight=4;overflow=hidden;rotatable=0;points=[[0,0.5],[1,0.5]];portConstraint=eastwest;dropTarget=0;fontSize=11;" parent="11MfjNws7Z_111s8Z915-69" vertex="1">
          <mxGeometry y="134" width="200" height="26" as="geometry" />
        </mxCell>
        <mxCell id="11MfjNws7Z_111s8Z915-81" value="" style="shape=partialRectangle;top=0;left=0;bottom=0;fillColor=none;align=center;verticalAlign=top;spacingLeft=4;spacingRight=4;overflow=hidden;rotatable=0;points=[];portConstraint=eastwest;part=1;fontSize=11;" parent="11MfjNws7Z_111s8Z915-80" vertex="1" connectable="0">
          <mxGeometry width="40" height="26" as="geometry" />
        </mxCell>
        <mxCell id="11MfjNws7Z_111s8Z915-82" value="StateID" style="shape=partialRectangle;top=0;left=0;right=0;bottom=0;align=left;verticalAlign=top;fillColor=none;spacingLeft=44;spacingRight=4;overflow=hidden;rotatable=0;points=[[0,0.5],[1,0.5]];portConstraint=eastwest;dropTarget=0;fontSize=11;" parent="11MfjNws7Z_111s8Z915-69" vertex="1">
          <mxGeometry y="160" width="200" height="26" as="geometry" />
        </mxCell>
        <mxCell id="11MfjNws7Z_111s8Z915-83" value="FK2" style="shape=partialRectangle;top=0;left=0;bottom=0;fillColor=none;align=center;verticalAlign=top;spacingLeft=4;spacingRight=4;overflow=hidden;rotatable=0;points=[];portConstraint=eastwest;part=1;fontSize=11;" parent="11MfjNws7Z_111s8Z915-82" vertex="1" connectable="0">
          <mxGeometry width="40" height="26" as="geometry" />
        </mxCell>
        <mxCell id="11MfjNws7Z_111s8Z915-84" value="CatalogSectionID" style="shape=partialRectangle;top=0;left=0;right=0;bottom=0;align=left;verticalAlign=top;fillColor=none;spacingLeft=44;spacingRight=4;overflow=hidden;rotatable=0;points=[[0,0.5],[1,0.5]];portConstraint=eastwest;dropTarget=0;fontSize=11;" parent="11MfjNws7Z_111s8Z915-69" vertex="1">
          <mxGeometry y="186" width="200" height="26" as="geometry" />
        </mxCell>
        <mxCell id="11MfjNws7Z_111s8Z915-85" value="FK3" style="shape=partialRectangle;top=0;left=0;bottom=0;fillColor=none;align=center;verticalAlign=top;spacingLeft=4;spacingRight=4;overflow=hidden;rotatable=0;points=[];portConstraint=eastwest;part=1;fontSize=11;" parent="11MfjNws7Z_111s8Z915-84" vertex="1" connectable="0">
          <mxGeometry width="40" height="26" as="geometry" />
        </mxCell>
        <mxCell id="11MfjNws7Z_111s8Z915-88" value="" style="shape=partialRectangle;top=0;left=0;right=0;bottom=0;align=left;verticalAlign=top;fillColor=none;spacingLeft=44;spacingRight=4;overflow=hidden;rotatable=0;points=[[0,0.5],[1,0.5]];portConstraint=eastwest;dropTarget=0;fontSize=11;" parent="11MfjNws7Z_111s8Z915-69" vertex="1">
          <mxGeometry y="212" width="200" height="26" as="geometry" />
        </mxCell>
        <mxCell id="11MfjNws7Z_111s8Z915-89" value="" style="shape=partialRectangle;top=0;left=0;bottom=0;fillColor=none;align=center;verticalAlign=top;spacingLeft=4;spacingRight=4;overflow=hidden;rotatable=0;points=[];portConstraint=eastwest;part=1;fontSize=11;" parent="11MfjNws7Z_111s8Z915-88" vertex="1" connectable="0">
          <mxGeometry width="40" height="26" as="geometry" />
        </mxCell>
        <mxCell id="11MfjNws7Z_111s8Z915-92" value="Brand" style="swimlane;fontStyle=0;childLayout=stackLayout;horizontal=1;startSize=26;fillColor=#fff2cc;horizontalStack=0;resizeParent=1;resizeParentMax=0;resizeLast=0;collapsible=1;marginBottom=0;swimlaneFillColor=#ffffff;align=center;fontSize=13;strokeColor=#d6b656;gradientColor=#ffd966;" parent="r35dB6ONybMWZtxrlVqa-1" vertex="1">
          <mxGeometry x="-480" y="70" width="200" height="82" as="geometry" />
        </mxCell>
        <mxCell id="11MfjNws7Z_111s8Z915-93" value="BrandID" style="shape=partialRectangle;top=0;left=0;right=0;bottom=1;align=left;verticalAlign=middle;spacingLeft=44;spacingRight=4;overflow=hidden;rotatable=0;points=[[0,0.5],[1,0.5]];portConstraint=eastwest;dropTarget=0;fontStyle=5;fontSize=11;" parent="11MfjNws7Z_111s8Z915-92" vertex="1">
          <mxGeometry y="26" width="200" height="30" as="geometry" />
        </mxCell>
        <mxCell id="11MfjNws7Z_111s8Z915-94" value="PK" style="shape=partialRectangle;top=0;left=0;bottom=0;fillColor=none;align=center;verticalAlign=middle;spacingLeft=4;spacingRight=4;overflow=hidden;rotatable=0;points=[];portConstraint=eastwest;part=1;fontSize=11;" parent="11MfjNws7Z_111s8Z915-93" vertex="1" connectable="0">
          <mxGeometry width="40" height="30" as="geometry" />
        </mxCell>
        <mxCell id="11MfjNws7Z_111s8Z915-95" value="Name" style="shape=partialRectangle;top=0;left=0;right=0;bottom=0;align=left;verticalAlign=top;fillColor=none;spacingLeft=44;spacingRight=4;overflow=hidden;rotatable=0;points=[[0,0.5],[1,0.5]];portConstraint=eastwest;dropTarget=0;fontSize=11;" parent="11MfjNws7Z_111s8Z915-92" vertex="1">
          <mxGeometry y="56" width="200" height="26" as="geometry" />
        </mxCell>
        <mxCell id="11MfjNws7Z_111s8Z915-96" value="AK" style="shape=partialRectangle;top=0;left=0;bottom=0;fillColor=none;align=center;verticalAlign=top;spacingLeft=4;spacingRight=4;overflow=hidden;rotatable=0;points=[];portConstraint=eastwest;part=1;fontSize=11;" parent="11MfjNws7Z_111s8Z915-95" vertex="1" connectable="0">
          <mxGeometry width="40" height="26" as="geometry" />
        </mxCell>
        <mxCell id="11MfjNws7Z_111s8Z915-97" style="edgeStyle=elbowEdgeStyle;rounded=1;orthogonalLoop=1;jettySize=auto;html=1;exitX=1;exitY=0.5;exitDx=0;exitDy=0;startArrow=ERzeroToMany;startFill=0;endArrow=ERmandOne;endFill=0;entryX=1;entryY=0.5;entryDx=0;entryDy=0;" parent="r35dB6ONybMWZtxrlVqa-1" source="11MfjNws7Z_111s8Z915-196" target="11MfjNws7Z_111s8Z915-70" edge="1">
          <mxGeometry relative="1" as="geometry">
            <mxPoint x="489.99999999999955" y="242.00000000000023" as="sourcePoint" />
            <mxPoint x="340" y="161" as="targetPoint" />
            <Array as="points">
              <mxPoint x="200" y="320" />
            </Array>
          </mxGeometry>
        </mxCell>
        <mxCell id="11MfjNws7Z_111s8Z915-98" value="Color" style="swimlane;fontStyle=0;childLayout=stackLayout;horizontal=1;startSize=26;fillColor=#fff2cc;horizontalStack=0;resizeParent=1;resizeParentMax=0;resizeLast=0;collapsible=1;marginBottom=0;swimlaneFillColor=#ffffff;align=center;fontSize=13;strokeColor=#d6b656;gradientColor=#ffd966;" parent="r35dB6ONybMWZtxrlVqa-1" vertex="1">
          <mxGeometry x="260" y="-110" width="200" height="164" as="geometry" />
        </mxCell>
        <mxCell id="11MfjNws7Z_111s8Z915-99" value="ColorID" style="shape=partialRectangle;top=0;left=0;right=0;bottom=1;align=left;verticalAlign=middle;fillColor=none;spacingLeft=44;spacingRight=4;overflow=hidden;rotatable=0;points=[[0,0.5],[1,0.5]];portConstraint=eastwest;dropTarget=0;fontStyle=5;fontSize=11;" parent="11MfjNws7Z_111s8Z915-98" vertex="1">
          <mxGeometry y="26" width="200" height="30" as="geometry" />
        </mxCell>
        <mxCell id="11MfjNws7Z_111s8Z915-100" value="PK" style="shape=partialRectangle;top=0;left=0;bottom=0;fillColor=none;align=center;verticalAlign=middle;spacingLeft=4;spacingRight=4;overflow=hidden;rotatable=0;points=[];portConstraint=eastwest;part=1;fontSize=11;" parent="11MfjNws7Z_111s8Z915-99" vertex="1" connectable="0">
          <mxGeometry width="40" height="30" as="geometry" />
        </mxCell>
        <mxCell id="11MfjNws7Z_111s8Z915-107" value="Name" style="shape=partialRectangle;top=0;left=0;right=0;bottom=0;align=left;verticalAlign=top;fillColor=none;spacingLeft=44;spacingRight=4;overflow=hidden;rotatable=0;points=[[0,0.5],[1,0.5]];portConstraint=eastwest;dropTarget=0;fontSize=11;" parent="11MfjNws7Z_111s8Z915-98" vertex="1">
          <mxGeometry y="56" width="200" height="26" as="geometry" />
        </mxCell>
        <mxCell id="11MfjNws7Z_111s8Z915-108" value="AK" style="shape=partialRectangle;top=0;left=0;bottom=0;fillColor=none;align=center;verticalAlign=top;spacingLeft=4;spacingRight=4;overflow=hidden;rotatable=0;points=[];portConstraint=eastwest;part=1;fontSize=11;" parent="11MfjNws7Z_111s8Z915-107" vertex="1" connectable="0">
          <mxGeometry width="40" height="26" as="geometry" />
        </mxCell>
        <mxCell id="TpzFjVhXesu7cyExVjw_-1" value="Size" style="swimlane;fontStyle=0;childLayout=stackLayout;horizontal=1;startSize=26;fillColor=#fff2cc;horizontalStack=0;resizeParent=1;resizeParentMax=0;resizeLast=0;collapsible=1;marginBottom=0;swimlaneFillColor=#ffffff;align=center;fontSize=13;strokeColor=#d6b656;gradientColor=#ffd966;" parent="11MfjNws7Z_111s8Z915-98" vertex="1">
          <mxGeometry y="82" width="200" height="82" as="geometry" />
        </mxCell>
        <mxCell id="TpzFjVhXesu7cyExVjw_-2" value="SizeID" style="shape=partialRectangle;top=0;left=0;right=0;bottom=1;align=left;verticalAlign=middle;fillColor=none;spacingLeft=44;spacingRight=4;overflow=hidden;rotatable=0;points=[[0,0.5],[1,0.5]];portConstraint=eastwest;dropTarget=0;fontStyle=5;fontSize=11;" parent="TpzFjVhXesu7cyExVjw_-1" vertex="1">
          <mxGeometry y="26" width="200" height="30" as="geometry" />
        </mxCell>
        <mxCell id="TpzFjVhXesu7cyExVjw_-3" value="PK" style="shape=partialRectangle;top=0;left=0;bottom=0;fillColor=none;align=center;verticalAlign=middle;spacingLeft=4;spacingRight=4;overflow=hidden;rotatable=0;points=[];portConstraint=eastwest;part=1;fontSize=11;" parent="TpzFjVhXesu7cyExVjw_-2" vertex="1" connectable="0">
          <mxGeometry width="40" height="30" as="geometry" />
        </mxCell>
        <mxCell id="TpzFjVhXesu7cyExVjw_-4" value="Name" style="shape=partialRectangle;top=0;left=0;right=0;bottom=0;align=left;verticalAlign=top;fillColor=none;spacingLeft=44;spacingRight=4;overflow=hidden;rotatable=0;points=[[0,0.5],[1,0.5]];portConstraint=eastwest;dropTarget=0;fontSize=11;" parent="TpzFjVhXesu7cyExVjw_-1" vertex="1">
          <mxGeometry y="56" width="200" height="26" as="geometry" />
        </mxCell>
        <mxCell id="TpzFjVhXesu7cyExVjw_-5" value="AK" style="shape=partialRectangle;top=0;left=0;bottom=0;fillColor=none;align=center;verticalAlign=top;spacingLeft=4;spacingRight=4;overflow=hidden;rotatable=0;points=[];portConstraint=eastwest;part=1;fontSize=11;" parent="TpzFjVhXesu7cyExVjw_-4" vertex="1" connectable="0">
          <mxGeometry width="40" height="26" as="geometry" />
        </mxCell>
        <mxCell id="11MfjNws7Z_111s8Z915-103" style="edgeStyle=elbowEdgeStyle;rounded=1;orthogonalLoop=1;jettySize=auto;html=1;entryX=0;entryY=0.5;entryDx=0;entryDy=0;startArrow=ERmandOne;startFill=0;endArrow=ERzeroToMany;endFill=0;exitX=1;exitY=0.5;exitDx=0;exitDy=0;" parent="r35dB6ONybMWZtxrlVqa-1" source="TpzFjVhXesu7cyExVjw_-25" target="11MfjNws7Z_111s8Z915-99" edge="1">
          <mxGeometry relative="1" as="geometry">
            <mxPoint x="140" y="-40" as="sourcePoint" />
          </mxGeometry>
        </mxCell>
        <mxCell id="11MfjNws7Z_111s8Z915-113" value="State" style="swimlane;fontStyle=0;childLayout=stackLayout;horizontal=1;startSize=26;fillColor=#fff2cc;horizontalStack=0;resizeParent=1;resizeParentMax=0;resizeLast=0;collapsible=1;marginBottom=0;swimlaneFillColor=#ffffff;align=center;fontSize=13;strokeColor=#d6b656;gradientColor=#ffd966;" parent="r35dB6ONybMWZtxrlVqa-1" vertex="1">
          <mxGeometry x="-480" y="180" width="200" height="82" as="geometry" />
        </mxCell>
        <mxCell id="11MfjNws7Z_111s8Z915-114" value="StateID" style="shape=partialRectangle;top=0;left=0;right=0;bottom=1;align=left;verticalAlign=middle;spacingLeft=44;spacingRight=4;overflow=hidden;rotatable=0;points=[[0,0.5],[1,0.5]];portConstraint=eastwest;dropTarget=0;fontStyle=5;fontSize=11;" parent="11MfjNws7Z_111s8Z915-113" vertex="1">
          <mxGeometry y="26" width="200" height="30" as="geometry" />
        </mxCell>
        <mxCell id="11MfjNws7Z_111s8Z915-115" value="PK" style="shape=partialRectangle;top=0;left=0;bottom=0;fillColor=none;align=center;verticalAlign=middle;spacingLeft=4;spacingRight=4;overflow=hidden;rotatable=0;points=[];portConstraint=eastwest;part=1;fontSize=11;" parent="11MfjNws7Z_111s8Z915-114" vertex="1" connectable="0">
          <mxGeometry width="40" height="30" as="geometry" />
        </mxCell>
        <mxCell id="11MfjNws7Z_111s8Z915-116" value="Name" style="shape=partialRectangle;top=0;left=0;right=0;bottom=0;align=left;verticalAlign=top;fillColor=none;spacingLeft=44;spacingRight=4;overflow=hidden;rotatable=0;points=[[0,0.5],[1,0.5]];portConstraint=eastwest;dropTarget=0;fontSize=11;" parent="11MfjNws7Z_111s8Z915-113" vertex="1">
          <mxGeometry y="56" width="200" height="26" as="geometry" />
        </mxCell>
        <mxCell id="11MfjNws7Z_111s8Z915-117" value="AK" style="shape=partialRectangle;top=0;left=0;bottom=0;fillColor=none;align=center;verticalAlign=top;spacingLeft=4;spacingRight=4;overflow=hidden;rotatable=0;points=[];portConstraint=eastwest;part=1;fontSize=11;" parent="11MfjNws7Z_111s8Z915-116" vertex="1" connectable="0">
          <mxGeometry width="40" height="26" as="geometry" />
        </mxCell>
        <mxCell id="11MfjNws7Z_111s8Z915-118" style="edgeStyle=entityRelationEdgeStyle;rounded=1;orthogonalLoop=1;jettySize=auto;html=1;exitX=0;exitY=0.5;exitDx=0;exitDy=0;entryX=1;entryY=0.5;entryDx=0;entryDy=0;startArrow=ERzeroToMany;startFill=0;endArrow=ERmandOne;endFill=0;" parent="r35dB6ONybMWZtxrlVqa-1" source="11MfjNws7Z_111s8Z915-82" target="11MfjNws7Z_111s8Z915-114" edge="1">
          <mxGeometry relative="1" as="geometry">
            <mxPoint x="-360" y="465" as="sourcePoint" />
          </mxGeometry>
        </mxCell>
        <mxCell id="11MfjNws7Z_111s8Z915-120" style="edgeStyle=entityRelationEdgeStyle;rounded=1;orthogonalLoop=1;jettySize=auto;html=1;entryX=1;entryY=0.5;entryDx=0;entryDy=0;startArrow=ERzeroToMany;startFill=0;endArrow=ERmandOne;endFill=0;" parent="r35dB6ONybMWZtxrlVqa-1" source="11MfjNws7Z_111s8Z915-84" target="11MfjNws7Z_111s8Z915-47" edge="1">
          <mxGeometry relative="1" as="geometry">
            <mxPoint x="-70" y="60" as="sourcePoint" />
            <mxPoint x="-220" y="152" as="targetPoint" />
            <Array as="points">
              <mxPoint x="-70" y="350" />
            </Array>
          </mxGeometry>
        </mxCell>
        <mxCell id="11MfjNws7Z_111s8Z915-121" value="Order" style="swimlane;fontStyle=0;childLayout=stackLayout;horizontal=1;startSize=26;fillColor=#fad7ac;horizontalStack=0;resizeParent=1;resizeParentMax=0;resizeLast=0;collapsible=1;marginBottom=0;swimlaneFillColor=#ffffff;align=center;fontSize=13;strokeColor=#b46504;" parent="r35dB6ONybMWZtxrlVqa-1" vertex="1">
          <mxGeometry x="-480" y="560" width="200" height="316" as="geometry" />
        </mxCell>
        <mxCell id="11MfjNws7Z_111s8Z915-122" value="OrderID" style="shape=partialRectangle;top=0;left=0;right=0;bottom=1;align=left;verticalAlign=middle;fillColor=none;spacingLeft=44;spacingRight=4;overflow=hidden;rotatable=0;points=[[0,0.5],[1,0.5]];portConstraint=eastwest;dropTarget=0;fontStyle=5;fontSize=11;" parent="11MfjNws7Z_111s8Z915-121" vertex="1">
          <mxGeometry y="26" width="200" height="30" as="geometry" />
        </mxCell>
        <mxCell id="11MfjNws7Z_111s8Z915-123" value="PK" style="shape=partialRectangle;top=0;left=0;bottom=0;fillColor=none;align=center;verticalAlign=middle;spacingLeft=4;spacingRight=4;overflow=hidden;rotatable=0;points=[];portConstraint=eastwest;part=1;fontSize=11;" parent="11MfjNws7Z_111s8Z915-122" vertex="1" connectable="0">
          <mxGeometry width="40" height="30" as="geometry" />
        </mxCell>
        <mxCell id="11MfjNws7Z_111s8Z915-124" value="Code" style="shape=partialRectangle;top=0;left=0;right=0;bottom=0;align=left;verticalAlign=top;fillColor=none;spacingLeft=44;spacingRight=4;overflow=hidden;rotatable=0;points=[[0,0.5],[1,0.5]];portConstraint=eastwest;dropTarget=0;fontSize=11;" parent="11MfjNws7Z_111s8Z915-121" vertex="1">
          <mxGeometry y="56" width="200" height="26" as="geometry" />
        </mxCell>
        <mxCell id="11MfjNws7Z_111s8Z915-125" value="AK" style="shape=partialRectangle;top=0;left=0;bottom=0;fillColor=none;align=center;verticalAlign=top;spacingLeft=4;spacingRight=4;overflow=hidden;rotatable=0;points=[];portConstraint=eastwest;part=1;fontSize=11;" parent="11MfjNws7Z_111s8Z915-124" vertex="1" connectable="0">
          <mxGeometry width="40" height="26" as="geometry" />
        </mxCell>
        <mxCell id="11MfjNws7Z_111s8Z915-126" value="CreationDateTime" style="shape=partialRectangle;top=0;left=0;right=0;bottom=0;align=left;verticalAlign=top;fillColor=none;spacingLeft=44;spacingRight=4;overflow=hidden;rotatable=0;points=[[0,0.5],[1,0.5]];portConstraint=eastwest;dropTarget=0;fontSize=11;" parent="11MfjNws7Z_111s8Z915-121" vertex="1">
          <mxGeometry y="82" width="200" height="26" as="geometry" />
        </mxCell>
        <mxCell id="11MfjNws7Z_111s8Z915-127" value="" style="shape=partialRectangle;top=0;left=0;bottom=0;fillColor=none;align=center;verticalAlign=top;spacingLeft=4;spacingRight=4;overflow=hidden;rotatable=0;points=[];portConstraint=eastwest;part=1;fontSize=11;" parent="11MfjNws7Z_111s8Z915-126" vertex="1" connectable="0">
          <mxGeometry width="40" height="26" as="geometry" />
        </mxCell>
        <mxCell id="11MfjNws7Z_111s8Z915-128" value="ShelfLife" style="shape=partialRectangle;top=0;left=0;right=0;bottom=0;align=left;verticalAlign=top;fillColor=none;spacingLeft=44;spacingRight=4;overflow=hidden;rotatable=0;points=[[0,0.5],[1,0.5]];portConstraint=eastwest;dropTarget=0;fontSize=11;" parent="11MfjNws7Z_111s8Z915-121" vertex="1">
          <mxGeometry y="108" width="200" height="26" as="geometry" />
        </mxCell>
        <mxCell id="11MfjNws7Z_111s8Z915-129" value="" style="shape=partialRectangle;top=0;left=0;bottom=0;fillColor=none;align=center;verticalAlign=top;spacingLeft=4;spacingRight=4;overflow=hidden;rotatable=0;points=[];portConstraint=eastwest;part=1;fontSize=11;" parent="11MfjNws7Z_111s8Z915-128" vertex="1" connectable="0">
          <mxGeometry width="40" height="26" as="geometry" />
        </mxCell>
        <mxCell id="11MfjNws7Z_111s8Z915-130" value="FinalCost" style="shape=partialRectangle;top=0;left=0;right=0;bottom=0;align=left;verticalAlign=top;fillColor=none;spacingLeft=44;spacingRight=4;overflow=hidden;rotatable=0;points=[[0,0.5],[1,0.5]];portConstraint=eastwest;dropTarget=0;fontSize=11;" parent="11MfjNws7Z_111s8Z915-121" vertex="1">
          <mxGeometry y="134" width="200" height="26" as="geometry" />
        </mxCell>
        <mxCell id="11MfjNws7Z_111s8Z915-131" value="" style="shape=partialRectangle;top=0;left=0;bottom=0;fillColor=none;align=center;verticalAlign=top;spacingLeft=4;spacingRight=4;overflow=hidden;rotatable=0;points=[];portConstraint=eastwest;part=1;fontSize=11;" parent="11MfjNws7Z_111s8Z915-130" vertex="1" connectable="0">
          <mxGeometry width="40" height="26" as="geometry" />
        </mxCell>
        <mxCell id="11MfjNws7Z_111s8Z915-132" value="StatusID" style="shape=partialRectangle;top=0;left=0;right=0;bottom=0;align=left;verticalAlign=top;fillColor=none;spacingLeft=44;spacingRight=4;overflow=hidden;rotatable=0;points=[[0,0.5],[1,0.5]];portConstraint=eastwest;dropTarget=0;fontSize=11;" parent="11MfjNws7Z_111s8Z915-121" vertex="1">
          <mxGeometry y="160" width="200" height="26" as="geometry" />
        </mxCell>
        <mxCell id="11MfjNws7Z_111s8Z915-133" value="FK1" style="shape=partialRectangle;top=0;left=0;bottom=0;fillColor=none;align=center;verticalAlign=top;spacingLeft=4;spacingRight=4;overflow=hidden;rotatable=0;points=[];portConstraint=eastwest;part=1;fontSize=11;" parent="11MfjNws7Z_111s8Z915-132" vertex="1" connectable="0">
          <mxGeometry width="40" height="26" as="geometry" />
        </mxCell>
        <mxCell id="11MfjNws7Z_111s8Z915-134" value="PickUpPointID" style="shape=partialRectangle;top=0;left=0;right=0;bottom=0;align=left;verticalAlign=top;fillColor=none;spacingLeft=44;spacingRight=4;overflow=hidden;rotatable=0;points=[[0,0.5],[1,0.5]];portConstraint=eastwest;dropTarget=0;fontSize=11;" parent="11MfjNws7Z_111s8Z915-121" vertex="1">
          <mxGeometry y="186" width="200" height="26" as="geometry" />
        </mxCell>
        <mxCell id="11MfjNws7Z_111s8Z915-135" value="FK2" style="shape=partialRectangle;top=0;left=0;bottom=0;fillColor=none;align=center;verticalAlign=top;spacingLeft=4;spacingRight=4;overflow=hidden;rotatable=0;points=[];portConstraint=eastwest;part=1;fontSize=11;" parent="11MfjNws7Z_111s8Z915-134" vertex="1" connectable="0">
          <mxGeometry width="40" height="26" as="geometry" />
        </mxCell>
        <mxCell id="11MfjNws7Z_111s8Z915-136" value="WarehouseID" style="shape=partialRectangle;top=0;left=0;right=0;bottom=0;align=left;verticalAlign=top;fillColor=none;spacingLeft=44;spacingRight=4;overflow=hidden;rotatable=0;points=[[0,0.5],[1,0.5]];portConstraint=eastwest;dropTarget=0;fontSize=11;" parent="11MfjNws7Z_111s8Z915-121" vertex="1">
          <mxGeometry y="212" width="200" height="26" as="geometry" />
        </mxCell>
        <mxCell id="11MfjNws7Z_111s8Z915-137" value="FK3" style="shape=partialRectangle;top=0;left=0;bottom=0;fillColor=none;align=center;verticalAlign=top;spacingLeft=4;spacingRight=4;overflow=hidden;rotatable=0;points=[];portConstraint=eastwest;part=1;fontSize=11;" parent="11MfjNws7Z_111s8Z915-136" vertex="1" connectable="0">
          <mxGeometry width="40" height="26" as="geometry" />
        </mxCell>
        <mxCell id="11MfjNws7Z_111s8Z915-138" value="ClientID" style="shape=partialRectangle;top=0;left=0;right=0;bottom=0;align=left;verticalAlign=top;fillColor=none;spacingLeft=44;spacingRight=4;overflow=hidden;rotatable=0;points=[[0,0.5],[1,0.5]];portConstraint=eastwest;dropTarget=0;fontSize=11;" parent="11MfjNws7Z_111s8Z915-121" vertex="1">
          <mxGeometry y="238" width="200" height="26" as="geometry" />
        </mxCell>
        <mxCell id="11MfjNws7Z_111s8Z915-139" value="FK4" style="shape=partialRectangle;top=0;left=0;bottom=0;fillColor=none;align=center;verticalAlign=top;spacingLeft=4;spacingRight=4;overflow=hidden;rotatable=0;points=[];portConstraint=eastwest;part=1;fontSize=11;" parent="11MfjNws7Z_111s8Z915-138" vertex="1" connectable="0">
          <mxGeometry width="40" height="26" as="geometry" />
        </mxCell>
        <mxCell id="11MfjNws7Z_111s8Z915-140" value="Quantity" style="shape=partialRectangle;top=0;left=0;right=0;bottom=0;align=left;verticalAlign=top;fillColor=none;spacingLeft=44;spacingRight=4;overflow=hidden;rotatable=0;points=[[0,0.5],[1,0.5]];portConstraint=eastwest;dropTarget=0;fontSize=11;" parent="11MfjNws7Z_111s8Z915-121" vertex="1">
          <mxGeometry y="264" width="200" height="26" as="geometry" />
        </mxCell>
        <mxCell id="11MfjNws7Z_111s8Z915-141" value="" style="shape=partialRectangle;top=0;left=0;bottom=0;fillColor=none;align=center;verticalAlign=top;spacingLeft=4;spacingRight=4;overflow=hidden;rotatable=0;points=[];portConstraint=eastwest;part=1;fontSize=11;" parent="11MfjNws7Z_111s8Z915-140" vertex="1" connectable="0">
          <mxGeometry width="40" height="26" as="geometry" />
        </mxCell>
        <mxCell id="11MfjNws7Z_111s8Z915-142" value="Cost" style="shape=partialRectangle;top=0;left=0;right=0;bottom=0;align=left;verticalAlign=top;fillColor=none;spacingLeft=44;spacingRight=4;overflow=hidden;rotatable=0;points=[[0,0.5],[1,0.5]];portConstraint=eastwest;dropTarget=0;fontSize=11;" parent="11MfjNws7Z_111s8Z915-121" vertex="1">
          <mxGeometry y="290" width="200" height="26" as="geometry" />
        </mxCell>
        <mxCell id="11MfjNws7Z_111s8Z915-143" value="" style="shape=partialRectangle;top=0;left=0;bottom=0;fillColor=none;align=center;verticalAlign=top;spacingLeft=4;spacingRight=4;overflow=hidden;rotatable=0;points=[];portConstraint=eastwest;part=1;fontSize=11;" parent="11MfjNws7Z_111s8Z915-142" vertex="1" connectable="0">
          <mxGeometry width="40" height="26" as="geometry" />
        </mxCell>
        <mxCell id="11MfjNws7Z_111s8Z915-167" value="OrderStatus" style="swimlane;fontStyle=0;childLayout=stackLayout;horizontal=1;startSize=26;fillColor=#fad7ac;horizontalStack=0;resizeParent=1;resizeParentMax=0;resizeLast=0;collapsible=1;marginBottom=0;swimlaneFillColor=#ffffff;align=center;fontSize=13;strokeColor=#b46504;" parent="r35dB6ONybMWZtxrlVqa-1" vertex="1">
          <mxGeometry x="-160" y="640" width="200" height="82" as="geometry" />
        </mxCell>
        <mxCell id="11MfjNws7Z_111s8Z915-172" style="edgeStyle=entityRelationEdgeStyle;rounded=1;orthogonalLoop=1;jettySize=auto;html=1;exitX=1;exitY=0.5;exitDx=0;exitDy=0;entryX=1;entryY=0.5;entryDx=0;entryDy=0;startArrow=ERzeroToMany;startFill=0;endArrow=ERmandOne;endFill=0;" parent="11MfjNws7Z_111s8Z915-167" source="11MfjNws7Z_111s8Z915-132" edge="1">
          <mxGeometry relative="1" as="geometry">
            <mxPoint x="70" y="183" as="sourcePoint" />
            <mxPoint y="41" as="targetPoint" />
          </mxGeometry>
        </mxCell>
        <mxCell id="11MfjNws7Z_111s8Z915-168" value="OrderStatusID" style="shape=partialRectangle;top=0;left=0;right=0;bottom=1;align=left;verticalAlign=middle;fillColor=none;spacingLeft=44;spacingRight=4;overflow=hidden;rotatable=0;points=[[0,0.5],[1,0.5]];portConstraint=eastwest;dropTarget=0;fontStyle=5;fontSize=11;" parent="11MfjNws7Z_111s8Z915-167" vertex="1">
          <mxGeometry y="26" width="200" height="30" as="geometry" />
        </mxCell>
        <mxCell id="11MfjNws7Z_111s8Z915-169" value="PK" style="shape=partialRectangle;top=0;left=0;bottom=0;fillColor=none;align=center;verticalAlign=middle;spacingLeft=4;spacingRight=4;overflow=hidden;rotatable=0;points=[];portConstraint=eastwest;part=1;fontSize=11;" parent="11MfjNws7Z_111s8Z915-168" vertex="1" connectable="0">
          <mxGeometry width="40" height="30" as="geometry" />
        </mxCell>
        <mxCell id="11MfjNws7Z_111s8Z915-170" value="Name" style="shape=partialRectangle;top=0;left=0;right=0;bottom=0;align=left;verticalAlign=top;fillColor=none;spacingLeft=44;spacingRight=4;overflow=hidden;rotatable=0;points=[[0,0.5],[1,0.5]];portConstraint=eastwest;dropTarget=0;fontSize=11;" parent="11MfjNws7Z_111s8Z915-167" vertex="1">
          <mxGeometry y="56" width="200" height="26" as="geometry" />
        </mxCell>
        <mxCell id="11MfjNws7Z_111s8Z915-171" value="AK" style="shape=partialRectangle;top=0;left=0;bottom=0;fillColor=none;align=center;verticalAlign=top;spacingLeft=4;spacingRight=4;overflow=hidden;rotatable=0;points=[];portConstraint=eastwest;part=1;fontSize=11;" parent="11MfjNws7Z_111s8Z915-170" vertex="1" connectable="0">
          <mxGeometry width="40" height="26" as="geometry" />
        </mxCell>
        <mxCell id="11MfjNws7Z_111s8Z915-173" style="edgeStyle=elbowEdgeStyle;rounded=1;orthogonalLoop=1;jettySize=auto;html=1;exitX=1;exitY=0.5;exitDx=0;exitDy=0;entryX=0;entryY=0.5;entryDx=0;entryDy=0;startArrow=ERzeroToMany;startFill=0;endArrow=ERmandOne;endFill=0;" parent="r35dB6ONybMWZtxrlVqa-1" source="11MfjNws7Z_111s8Z915-136" target="11MfjNws7Z_111s8Z915-1" edge="1">
          <mxGeometry relative="1" as="geometry">
            <mxPoint x="-280" y="761" as="sourcePoint" />
            <mxPoint x="520" y="776" as="targetPoint" />
            <Array as="points" />
          </mxGeometry>
        </mxCell>
        <mxCell id="11MfjNws7Z_111s8Z915-178" style="edgeStyle=elbowEdgeStyle;rounded=1;orthogonalLoop=1;jettySize=auto;html=1;entryX=0;entryY=0.5;entryDx=0;entryDy=0;startArrow=ERzeroToMany;startFill=0;endArrow=ERmandOne;endFill=0;exitX=1;exitY=0.5;exitDx=0;exitDy=0;" parent="r35dB6ONybMWZtxrlVqa-1" source="11MfjNws7Z_111s8Z915-134" target="11MfjNws7Z_111s8Z915-24" edge="1">
          <mxGeometry relative="1" as="geometry">
            <mxPoint x="-280" y="735" as="sourcePoint" />
            <mxPoint x="90" y="-234" as="targetPoint" />
            <Array as="points">
              <mxPoint x="270" y="606" />
            </Array>
          </mxGeometry>
        </mxCell>
        <mxCell id="11MfjNws7Z_111s8Z915-180" style="edgeStyle=entityRelationEdgeStyle;rounded=1;orthogonalLoop=1;jettySize=auto;html=1;entryX=1;entryY=0.5;entryDx=0;entryDy=0;startArrow=ERzeroToMany;startFill=0;endArrow=ERmandOne;endFill=0;exitX=0;exitY=0.5;exitDx=0;exitDy=0;" parent="r35dB6ONybMWZtxrlVqa-1" source="11MfjNws7Z_111s8Z915-138" target="e1cUlFGXbWlImAR1SOJB-93" edge="1">
          <mxGeometry relative="1" as="geometry">
            <mxPoint x="-710" y="770" as="sourcePoint" />
            <mxPoint x="-579.9999999999998" y="-203.50000000000023" as="targetPoint" />
            <Array as="points">
              <mxPoint x="-560" y="756.5" />
              <mxPoint x="-660" y="300" />
              <mxPoint x="-670" y="300" />
              <mxPoint x="-600" y="756.5" />
              <mxPoint x="-590" y="256.5" />
              <mxPoint x="-590" y="746.5" />
            </Array>
          </mxGeometry>
        </mxCell>
        <mxCell id="11MfjNws7Z_111s8Z915-181" style="edgeStyle=entityRelationEdgeStyle;rounded=1;orthogonalLoop=1;jettySize=auto;html=1;entryX=1;entryY=0.5;entryDx=0;entryDy=0;startArrow=ERzeroToMany;startFill=0;endArrow=ERmandOne;endFill=0;" parent="r35dB6ONybMWZtxrlVqa-1" source="11MfjNws7Z_111s8Z915-184" target="11MfjNws7Z_111s8Z915-122" edge="1">
          <mxGeometry relative="1" as="geometry">
            <mxPoint x="-50" y="339" as="sourcePoint" />
            <mxPoint x="-200" y="431" as="targetPoint" />
            <Array as="points">
              <mxPoint x="-220" y="490" />
            </Array>
          </mxGeometry>
        </mxCell>
        <mxCell id="11MfjNws7Z_111s8Z915-183" value="Order-Product" style="swimlane;fontStyle=0;childLayout=stackLayout;horizontal=1;startSize=26;fillColor=#ffcc99;horizontalStack=0;resizeParent=1;resizeParentMax=0;resizeLast=0;collapsible=1;marginBottom=0;swimlaneFillColor=#ffffff;align=center;fontSize=13;strokeColor=#36393d;" parent="r35dB6ONybMWZtxrlVqa-1" vertex="1">
          <mxGeometry x="-70" y="450" width="200" height="164" as="geometry" />
        </mxCell>
        <mxCell id="11MfjNws7Z_111s8Z915-184" value="OrderID" style="shape=partialRectangle;top=0;left=0;right=0;bottom=1;align=left;verticalAlign=middle;spacingLeft=44;spacingRight=4;overflow=hidden;rotatable=0;points=[[0,0.5],[1,0.5]];portConstraint=eastwest;dropTarget=0;fontStyle=5;fontSize=11;" parent="11MfjNws7Z_111s8Z915-183" vertex="1">
          <mxGeometry y="26" width="200" height="30" as="geometry" />
        </mxCell>
        <mxCell id="11MfjNws7Z_111s8Z915-185" value="PK,FK1" style="shape=partialRectangle;top=0;left=0;bottom=0;fillColor=none;align=center;verticalAlign=middle;spacingLeft=4;spacingRight=4;overflow=hidden;rotatable=0;points=[];portConstraint=eastwest;part=1;fontSize=9;" parent="11MfjNws7Z_111s8Z915-184" vertex="1" connectable="0">
          <mxGeometry width="40" height="30" as="geometry" />
        </mxCell>
        <mxCell id="11MfjNws7Z_111s8Z915-196" value="ProductID" style="shape=partialRectangle;top=0;left=0;right=0;bottom=1;align=left;verticalAlign=middle;spacingLeft=44;spacingRight=4;overflow=hidden;rotatable=0;points=[[0,0.5],[1,0.5]];portConstraint=eastwest;dropTarget=0;fontStyle=5;fontSize=11;" parent="11MfjNws7Z_111s8Z915-183" vertex="1">
          <mxGeometry y="56" width="200" height="30" as="geometry" />
        </mxCell>
        <mxCell id="11MfjNws7Z_111s8Z915-197" value="PK,FK2" style="shape=partialRectangle;top=0;left=0;bottom=0;fillColor=none;align=center;verticalAlign=middle;spacingLeft=4;spacingRight=4;overflow=hidden;rotatable=0;points=[];portConstraint=eastwest;part=1;fontSize=9;" parent="11MfjNws7Z_111s8Z915-196" vertex="1" connectable="0">
          <mxGeometry width="40" height="30" as="geometry" />
        </mxCell>
        <mxCell id="11MfjNws7Z_111s8Z915-216" value="ProductPrice" style="shape=partialRectangle;top=0;left=0;right=0;bottom=0;align=left;verticalAlign=top;fillColor=none;spacingLeft=44;spacingRight=4;overflow=hidden;rotatable=0;points=[[0,0.5],[1,0.5]];portConstraint=eastwest;dropTarget=0;fontSize=11;" parent="11MfjNws7Z_111s8Z915-183" vertex="1">
          <mxGeometry y="86" width="200" height="26" as="geometry" />
        </mxCell>
        <mxCell id="11MfjNws7Z_111s8Z915-217" value="" style="shape=partialRectangle;top=0;left=0;bottom=0;fillColor=none;align=center;verticalAlign=top;spacingLeft=4;spacingRight=4;overflow=hidden;rotatable=0;points=[];portConstraint=eastwest;part=1;fontSize=11;" parent="11MfjNws7Z_111s8Z915-216" vertex="1" connectable="0">
          <mxGeometry width="40" height="26" as="geometry" />
        </mxCell>
        <mxCell id="11MfjNws7Z_111s8Z915-220" value="ProductQuantity" style="shape=partialRectangle;top=0;left=0;right=0;bottom=0;align=left;verticalAlign=top;fillColor=none;spacingLeft=44;spacingRight=4;overflow=hidden;rotatable=0;points=[[0,0.5],[1,0.5]];portConstraint=eastwest;dropTarget=0;fontSize=11;" parent="11MfjNws7Z_111s8Z915-183" vertex="1">
          <mxGeometry y="112" width="200" height="26" as="geometry" />
        </mxCell>
        <mxCell id="11MfjNws7Z_111s8Z915-221" value="" style="shape=partialRectangle;top=0;left=0;bottom=0;fillColor=none;align=center;verticalAlign=top;spacingLeft=4;spacingRight=4;overflow=hidden;rotatable=0;points=[];portConstraint=eastwest;part=1;fontSize=11;" parent="11MfjNws7Z_111s8Z915-220" vertex="1" connectable="0">
          <mxGeometry width="40" height="26" as="geometry" />
        </mxCell>
        <mxCell id="11MfjNws7Z_111s8Z915-218" value="DiscountValue" style="shape=partialRectangle;top=0;left=0;right=0;bottom=0;align=left;verticalAlign=top;fillColor=none;spacingLeft=44;spacingRight=4;overflow=hidden;rotatable=0;points=[[0,0.5],[1,0.5]];portConstraint=eastwest;dropTarget=0;fontSize=11;" parent="11MfjNws7Z_111s8Z915-183" vertex="1">
          <mxGeometry y="138" width="200" height="26" as="geometry" />
        </mxCell>
        <mxCell id="11MfjNws7Z_111s8Z915-219" value="" style="shape=partialRectangle;top=0;left=0;bottom=0;fillColor=none;align=center;verticalAlign=top;spacingLeft=4;spacingRight=4;overflow=hidden;rotatable=0;points=[];portConstraint=eastwest;part=1;fontSize=11;" parent="11MfjNws7Z_111s8Z915-218" vertex="1" connectable="0">
          <mxGeometry width="40" height="26" as="geometry" />
        </mxCell>
        <mxCell id="11MfjNws7Z_111s8Z915-203" style="edgeStyle=elbowEdgeStyle;rounded=1;orthogonalLoop=1;jettySize=auto;html=1;startArrow=ERmandOne;startFill=0;endArrow=ERmandOne;endFill=0;exitX=0;exitY=0.5;exitDx=0;exitDy=0;entryX=1;entryY=0.5;entryDx=0;entryDy=0;" parent="r35dB6ONybMWZtxrlVqa-1" source="11MfjNws7Z_111s8Z915-205" target="e1cUlFGXbWlImAR1SOJB-93" edge="1">
          <mxGeometry relative="1" as="geometry">
            <mxPoint x="-480" y="-141" as="sourcePoint" />
            <mxPoint x="-670" y="420" as="targetPoint" />
          </mxGeometry>
        </mxCell>
        <mxCell id="11MfjNws7Z_111s8Z915-204" value="Basket" style="swimlane;fontStyle=0;childLayout=stackLayout;horizontal=1;startSize=26;fillColor=#ffcc99;horizontalStack=0;resizeParent=1;resizeParentMax=0;resizeLast=0;collapsible=1;marginBottom=0;swimlaneFillColor=#ffffff;align=center;fontSize=13;strokeColor=#36393d;" parent="r35dB6ONybMWZtxrlVqa-1" vertex="1">
          <mxGeometry x="-480" y="-241" width="200" height="112" as="geometry" />
        </mxCell>
        <mxCell id="11MfjNws7Z_111s8Z915-205" value="ClientID" style="shape=partialRectangle;top=0;left=0;right=0;bottom=1;align=left;verticalAlign=middle;spacingLeft=44;spacingRight=4;overflow=hidden;rotatable=0;points=[[0,0.5],[1,0.5]];portConstraint=eastwest;dropTarget=0;fontStyle=5;fontSize=11;" parent="11MfjNws7Z_111s8Z915-204" vertex="1">
          <mxGeometry y="26" width="200" height="30" as="geometry" />
        </mxCell>
        <mxCell id="11MfjNws7Z_111s8Z915-206" value="PK,FK1" style="shape=partialRectangle;top=0;left=0;bottom=0;fillColor=none;align=center;verticalAlign=middle;spacingLeft=4;spacingRight=4;overflow=hidden;rotatable=0;points=[];portConstraint=eastwest;part=1;fontSize=9;" parent="11MfjNws7Z_111s8Z915-205" vertex="1" connectable="0">
          <mxGeometry width="40" height="30" as="geometry" />
        </mxCell>
        <mxCell id="11MfjNws7Z_111s8Z915-207" value="ProductID" style="shape=partialRectangle;top=0;left=0;right=0;bottom=1;align=left;verticalAlign=middle;spacingLeft=44;spacingRight=4;overflow=hidden;rotatable=0;points=[[0,0.5],[1,0.5]];portConstraint=eastwest;dropTarget=0;fontStyle=5;fontSize=11;" parent="11MfjNws7Z_111s8Z915-204" vertex="1">
          <mxGeometry y="56" width="200" height="30" as="geometry" />
        </mxCell>
        <mxCell id="11MfjNws7Z_111s8Z915-208" value="PK,FK2" style="shape=partialRectangle;top=0;left=0;bottom=0;fillColor=none;align=center;verticalAlign=middle;spacingLeft=4;spacingRight=4;overflow=hidden;rotatable=0;points=[];portConstraint=eastwest;part=1;fontSize=9;" parent="11MfjNws7Z_111s8Z915-207" vertex="1" connectable="0">
          <mxGeometry width="40" height="30" as="geometry" />
        </mxCell>
        <mxCell id="11MfjNws7Z_111s8Z915-214" value="ProductQuantity" style="shape=partialRectangle;top=0;left=0;right=0;bottom=0;align=left;verticalAlign=top;fillColor=none;spacingLeft=44;spacingRight=4;overflow=hidden;rotatable=0;points=[[0,0.5],[1,0.5]];portConstraint=eastwest;dropTarget=0;fontSize=11;" parent="11MfjNws7Z_111s8Z915-204" vertex="1">
          <mxGeometry y="86" width="200" height="26" as="geometry" />
        </mxCell>
        <mxCell id="11MfjNws7Z_111s8Z915-215" value="" style="shape=partialRectangle;top=0;left=0;bottom=0;fillColor=none;align=center;verticalAlign=top;spacingLeft=4;spacingRight=4;overflow=hidden;rotatable=0;points=[];portConstraint=eastwest;part=1;fontSize=11;" parent="11MfjNws7Z_111s8Z915-214" vertex="1" connectable="0">
          <mxGeometry width="40" height="26" as="geometry" />
        </mxCell>
        <mxCell id="11MfjNws7Z_111s8Z915-209" style="edgeStyle=elbowEdgeStyle;rounded=1;orthogonalLoop=1;jettySize=auto;html=1;startArrow=ERzeroToMany;startFill=0;endArrow=ERmandOne;endFill=0;strokeColor=default;jumpStyle=none;exitX=1;exitY=0.5;exitDx=0;exitDy=0;movable=1;resizable=1;rotatable=1;deletable=1;editable=1;locked=0;connectable=1;entryX=0;entryY=0.5;entryDx=0;entryDy=0;" parent="r35dB6ONybMWZtxrlVqa-1" source="11MfjNws7Z_111s8Z915-207" target="11MfjNws7Z_111s8Z915-70" edge="1">
          <mxGeometry relative="1" as="geometry">
            <mxPoint x="50" y="-124" as="sourcePoint" />
            <mxPoint x="350" y="-150" as="targetPoint" />
          </mxGeometry>
        </mxCell>
        <mxCell id="TpzFjVhXesu7cyExVjw_-10" style="rounded=1;orthogonalLoop=1;jettySize=auto;html=1;startArrow=ERmandOne;startFill=0;endArrow=ERzeroToMany;endFill=0;edgeStyle=elbowEdgeStyle;exitX=1;exitY=0.5;exitDx=0;exitDy=0;entryX=0;entryY=0.5;entryDx=0;entryDy=0;" parent="r35dB6ONybMWZtxrlVqa-1" source="TpzFjVhXesu7cyExVjw_-29" target="TpzFjVhXesu7cyExVjw_-2" edge="1">
          <mxGeometry relative="1" as="geometry">
            <mxPoint x="850" y="-56" as="sourcePoint" />
            <mxPoint x="290" y="110" as="targetPoint" />
            <Array as="points">
              <mxPoint x="220" y="-10" />
            </Array>
          </mxGeometry>
        </mxCell>
        <mxCell id="TpzFjVhXesu7cyExVjw_-22" value="Characteristics" style="swimlane;fontStyle=0;childLayout=stackLayout;horizontal=1;startSize=26;fillColor=#fff2cc;horizontalStack=0;resizeParent=1;resizeParentMax=0;resizeLast=0;collapsible=1;marginBottom=0;swimlaneFillColor=#ffffff;align=center;fontSize=13;strokeColor=#d6b656;gradientColor=#ffd966;" parent="r35dB6ONybMWZtxrlVqa-1" vertex="1">
          <mxGeometry x="-70" y="-110" width="200" height="138" as="geometry" />
        </mxCell>
        <mxCell id="TpzFjVhXesu7cyExVjw_-23" value="ProductID" style="shape=partialRectangle;top=0;left=0;right=0;bottom=1;align=left;verticalAlign=middle;spacingLeft=44;spacingRight=4;overflow=hidden;rotatable=0;points=[[0,0.5],[1,0.5]];portConstraint=eastwest;dropTarget=0;fontStyle=5;fontSize=11;" parent="TpzFjVhXesu7cyExVjw_-22" vertex="1">
          <mxGeometry y="26" width="200" height="30" as="geometry" />
        </mxCell>
        <mxCell id="TpzFjVhXesu7cyExVjw_-24" value="PK,FK1" style="shape=partialRectangle;top=0;left=0;bottom=0;fillColor=none;align=center;verticalAlign=middle;spacingLeft=4;spacingRight=4;overflow=hidden;rotatable=0;points=[];portConstraint=eastwest;part=1;fontSize=9;" parent="TpzFjVhXesu7cyExVjw_-23" vertex="1" connectable="0">
          <mxGeometry width="40" height="30" as="geometry" />
        </mxCell>
        <mxCell id="TpzFjVhXesu7cyExVjw_-25" value="ColorID" style="shape=partialRectangle;top=0;left=0;right=0;bottom=1;align=left;verticalAlign=middle;spacingLeft=44;spacingRight=4;overflow=hidden;rotatable=0;points=[[0,0.5],[1,0.5]];portConstraint=eastwest;dropTarget=0;fontStyle=0;fontSize=11;strokeColor=none;" parent="TpzFjVhXesu7cyExVjw_-22" vertex="1">
          <mxGeometry y="56" width="200" height="30" as="geometry" />
        </mxCell>
        <mxCell id="TpzFjVhXesu7cyExVjw_-26" value="FK2" style="shape=partialRectangle;top=0;left=0;bottom=0;fillColor=none;align=center;verticalAlign=middle;spacingLeft=4;spacingRight=4;overflow=hidden;rotatable=0;points=[];portConstraint=eastwest;part=1;fontSize=11;" parent="TpzFjVhXesu7cyExVjw_-25" vertex="1" connectable="0">
          <mxGeometry width="40" height="30" as="geometry" />
        </mxCell>
        <mxCell id="TpzFjVhXesu7cyExVjw_-29" value="SizeID" style="shape=partialRectangle;top=0;left=0;right=0;bottom=0;align=left;verticalAlign=top;fillColor=none;spacingLeft=44;spacingRight=4;overflow=hidden;rotatable=0;points=[[0,0.5],[1,0.5]];portConstraint=eastwest;dropTarget=0;fontSize=11;" parent="TpzFjVhXesu7cyExVjw_-22" vertex="1">
          <mxGeometry y="86" width="200" height="26" as="geometry" />
        </mxCell>
        <mxCell id="TpzFjVhXesu7cyExVjw_-30" value="FK3" style="shape=partialRectangle;top=0;left=0;bottom=0;fillColor=none;align=center;verticalAlign=top;spacingLeft=4;spacingRight=4;overflow=hidden;rotatable=0;points=[];portConstraint=eastwest;part=1;fontSize=11;" parent="TpzFjVhXesu7cyExVjw_-29" vertex="1" connectable="0">
          <mxGeometry width="40" height="26" as="geometry" />
        </mxCell>
        <mxCell id="TpzFjVhXesu7cyExVjw_-27" value="Weight" style="shape=partialRectangle;top=0;left=0;right=0;bottom=0;align=left;verticalAlign=top;fillColor=none;spacingLeft=44;spacingRight=4;overflow=hidden;rotatable=0;points=[[0,0.5],[1,0.5]];portConstraint=eastwest;dropTarget=0;fontSize=11;" parent="TpzFjVhXesu7cyExVjw_-22" vertex="1">
          <mxGeometry y="112" width="200" height="26" as="geometry" />
        </mxCell>
        <mxCell id="TpzFjVhXesu7cyExVjw_-28" value="" style="shape=partialRectangle;top=0;left=0;bottom=0;fillColor=none;align=center;verticalAlign=top;spacingLeft=4;spacingRight=4;overflow=hidden;rotatable=0;points=[];portConstraint=eastwest;part=1;fontSize=11;" parent="TpzFjVhXesu7cyExVjw_-27" vertex="1" connectable="0">
          <mxGeometry width="40" height="26" as="geometry" />
        </mxCell>
        <mxCell id="11MfjNws7Z_111s8Z915-200" style="edgeStyle=entityRelationEdgeStyle;rounded=1;orthogonalLoop=1;jettySize=auto;html=1;entryX=0;entryY=0.5;entryDx=0;entryDy=0;startArrow=ERzeroToMany;startFill=0;endArrow=ERmandOne;endFill=0;" parent="r35dB6ONybMWZtxrlVqa-1" source="11MfjNws7Z_111s8Z915-93" target="11MfjNws7Z_111s8Z915-74" edge="1">
          <mxGeometry relative="1" as="geometry">
            <mxPoint x="150" y="464" as="sourcePoint" />
            <mxPoint x="-70" y="292" as="targetPoint" />
          </mxGeometry>
        </mxCell>
        <mxCell id="TpzFjVhXesu7cyExVjw_-31" style="edgeStyle=elbowEdgeStyle;rounded=1;orthogonalLoop=1;jettySize=auto;html=1;entryX=0;entryY=0.5;entryDx=0;entryDy=0;startArrow=ERmandOne;startFill=0;endArrow=ERmandOne;endFill=0;exitX=0;exitY=0.5;exitDx=0;exitDy=0;" parent="r35dB6ONybMWZtxrlVqa-1" source="11MfjNws7Z_111s8Z915-70" edge="1">
          <mxGeometry relative="1" as="geometry">
            <mxPoint x="-80" y="110" as="sourcePoint" />
            <mxPoint x="-70" y="-68" as="targetPoint" />
            <Array as="points">
              <mxPoint x="-100" y="-39" />
            </Array>
          </mxGeometry>
        </mxCell>
        <mxCell id="oqt50vrC1taI-yx6oDw9-0" value="Product-Warehouse" style="swimlane;fontStyle=0;childLayout=stackLayout;horizontal=1;startSize=26;fillColor=#ffcc99;horizontalStack=0;resizeParent=1;resizeParentMax=0;resizeLast=0;collapsible=1;marginBottom=0;swimlaneFillColor=#ffffff;align=center;fontSize=13;strokeColor=#36393d;" vertex="1" parent="r35dB6ONybMWZtxrlVqa-1">
          <mxGeometry x="360" y="160" width="200" height="112" as="geometry" />
        </mxCell>
        <mxCell id="oqt50vrC1taI-yx6oDw9-1" value="ProductID" style="shape=partialRectangle;top=0;left=0;right=0;bottom=1;align=left;verticalAlign=middle;spacingLeft=44;spacingRight=4;overflow=hidden;rotatable=0;points=[[0,0.5],[1,0.5]];portConstraint=eastwest;dropTarget=0;fontStyle=5;fontSize=11;" vertex="1" parent="oqt50vrC1taI-yx6oDw9-0">
          <mxGeometry y="26" width="200" height="30" as="geometry" />
        </mxCell>
        <mxCell id="oqt50vrC1taI-yx6oDw9-2" value="PK,FK1" style="shape=partialRectangle;top=0;left=0;bottom=0;fillColor=none;align=center;verticalAlign=middle;spacingLeft=4;spacingRight=4;overflow=hidden;rotatable=0;points=[];portConstraint=eastwest;part=1;fontSize=9;" vertex="1" connectable="0" parent="oqt50vrC1taI-yx6oDw9-1">
          <mxGeometry width="40" height="30" as="geometry" />
        </mxCell>
        <mxCell id="oqt50vrC1taI-yx6oDw9-3" value="WarehouseID" style="shape=partialRectangle;top=0;left=0;right=0;bottom=1;align=left;verticalAlign=middle;spacingLeft=44;spacingRight=4;overflow=hidden;rotatable=0;points=[[0,0.5],[1,0.5]];portConstraint=eastwest;dropTarget=0;fontStyle=5;fontSize=11;" vertex="1" parent="oqt50vrC1taI-yx6oDw9-0">
          <mxGeometry y="56" width="200" height="30" as="geometry" />
        </mxCell>
        <mxCell id="oqt50vrC1taI-yx6oDw9-4" value="PK,FK2" style="shape=partialRectangle;top=0;left=0;bottom=0;fillColor=none;align=center;verticalAlign=middle;spacingLeft=4;spacingRight=4;overflow=hidden;rotatable=0;points=[];portConstraint=eastwest;part=1;fontSize=9;" vertex="1" connectable="0" parent="oqt50vrC1taI-yx6oDw9-3">
          <mxGeometry width="40" height="30" as="geometry" />
        </mxCell>
        <mxCell id="oqt50vrC1taI-yx6oDw9-5" value="ProductQuantity" style="shape=partialRectangle;top=0;left=0;right=0;bottom=0;align=left;verticalAlign=top;fillColor=none;spacingLeft=44;spacingRight=4;overflow=hidden;rotatable=0;points=[[0,0.5],[1,0.5]];portConstraint=eastwest;dropTarget=0;fontSize=11;" vertex="1" parent="oqt50vrC1taI-yx6oDw9-0">
          <mxGeometry y="86" width="200" height="26" as="geometry" />
        </mxCell>
        <mxCell id="oqt50vrC1taI-yx6oDw9-6" value="" style="shape=partialRectangle;top=0;left=0;bottom=0;fillColor=none;align=center;verticalAlign=top;spacingLeft=4;spacingRight=4;overflow=hidden;rotatable=0;points=[];portConstraint=eastwest;part=1;fontSize=11;" vertex="1" connectable="0" parent="oqt50vrC1taI-yx6oDw9-5">
          <mxGeometry width="40" height="26" as="geometry" />
        </mxCell>
        <mxCell id="oqt50vrC1taI-yx6oDw9-7" value="Product-PickUpPoint" style="swimlane;fontStyle=0;childLayout=stackLayout;horizontal=1;startSize=26;fillColor=#ffcc99;horizontalStack=0;resizeParent=1;resizeParentMax=0;resizeLast=0;collapsible=1;marginBottom=0;swimlaneFillColor=#ffffff;align=center;fontSize=13;strokeColor=#36393d;" vertex="1" parent="r35dB6ONybMWZtxrlVqa-1">
          <mxGeometry x="360" y="310" width="200" height="112" as="geometry" />
        </mxCell>
        <mxCell id="oqt50vrC1taI-yx6oDw9-8" value="ProductID" style="shape=partialRectangle;top=0;left=0;right=0;bottom=1;align=left;verticalAlign=middle;spacingLeft=44;spacingRight=4;overflow=hidden;rotatable=0;points=[[0,0.5],[1,0.5]];portConstraint=eastwest;dropTarget=0;fontStyle=5;fontSize=11;" vertex="1" parent="oqt50vrC1taI-yx6oDw9-7">
          <mxGeometry y="26" width="200" height="30" as="geometry" />
        </mxCell>
        <mxCell id="oqt50vrC1taI-yx6oDw9-9" value="PK,FK1" style="shape=partialRectangle;top=0;left=0;bottom=0;fillColor=none;align=center;verticalAlign=middle;spacingLeft=4;spacingRight=4;overflow=hidden;rotatable=0;points=[];portConstraint=eastwest;part=1;fontSize=9;" vertex="1" connectable="0" parent="oqt50vrC1taI-yx6oDw9-8">
          <mxGeometry width="40" height="30" as="geometry" />
        </mxCell>
        <mxCell id="oqt50vrC1taI-yx6oDw9-10" value="PickUpPointID" style="shape=partialRectangle;top=0;left=0;right=0;bottom=1;align=left;verticalAlign=middle;spacingLeft=44;spacingRight=4;overflow=hidden;rotatable=0;points=[[0,0.5],[1,0.5]];portConstraint=eastwest;dropTarget=0;fontStyle=5;fontSize=11;" vertex="1" parent="oqt50vrC1taI-yx6oDw9-7">
          <mxGeometry y="56" width="200" height="30" as="geometry" />
        </mxCell>
        <mxCell id="oqt50vrC1taI-yx6oDw9-11" value="PK,FK2" style="shape=partialRectangle;top=0;left=0;bottom=0;fillColor=none;align=center;verticalAlign=middle;spacingLeft=4;spacingRight=4;overflow=hidden;rotatable=0;points=[];portConstraint=eastwest;part=1;fontSize=9;" vertex="1" connectable="0" parent="oqt50vrC1taI-yx6oDw9-10">
          <mxGeometry width="40" height="30" as="geometry" />
        </mxCell>
        <mxCell id="oqt50vrC1taI-yx6oDw9-12" value="ProductQuantity" style="shape=partialRectangle;top=0;left=0;right=0;bottom=0;align=left;verticalAlign=top;fillColor=none;spacingLeft=44;spacingRight=4;overflow=hidden;rotatable=0;points=[[0,0.5],[1,0.5]];portConstraint=eastwest;dropTarget=0;fontSize=11;" vertex="1" parent="oqt50vrC1taI-yx6oDw9-7">
          <mxGeometry y="86" width="200" height="26" as="geometry" />
        </mxCell>
        <mxCell id="oqt50vrC1taI-yx6oDw9-13" value="" style="shape=partialRectangle;top=0;left=0;bottom=0;fillColor=none;align=center;verticalAlign=top;spacingLeft=4;spacingRight=4;overflow=hidden;rotatable=0;points=[];portConstraint=eastwest;part=1;fontSize=11;" vertex="1" connectable="0" parent="oqt50vrC1taI-yx6oDw9-12">
          <mxGeometry width="40" height="26" as="geometry" />
        </mxCell>
        <mxCell id="oqt50vrC1taI-yx6oDw9-14" style="edgeStyle=elbowEdgeStyle;rounded=1;orthogonalLoop=1;jettySize=auto;html=1;startArrow=ERzeroToMany;startFill=0;endArrow=ERmandOne;endFill=0;entryX=1;entryY=0.5;entryDx=0;entryDy=0;exitX=0;exitY=0.5;exitDx=0;exitDy=0;" edge="1" parent="r35dB6ONybMWZtxrlVqa-1" source="oqt50vrC1taI-yx6oDw9-1" target="11MfjNws7Z_111s8Z915-70">
          <mxGeometry relative="1" as="geometry">
            <mxPoint x="300" y="201" as="sourcePoint" />
            <mxPoint x="150" y="170" as="targetPoint" />
          </mxGeometry>
        </mxCell>
        <mxCell id="oqt50vrC1taI-yx6oDw9-15" style="edgeStyle=elbowEdgeStyle;rounded=1;orthogonalLoop=1;jettySize=auto;html=1;startArrow=ERzeroToMany;startFill=0;endArrow=ERmandOne;endFill=0;entryX=1;entryY=0.5;entryDx=0;entryDy=0;exitX=0;exitY=0.5;exitDx=0;exitDy=0;" edge="1" parent="r35dB6ONybMWZtxrlVqa-1" source="oqt50vrC1taI-yx6oDw9-8">
          <mxGeometry relative="1" as="geometry">
            <mxPoint x="360" y="200" as="sourcePoint" />
            <mxPoint x="130" y="110" as="targetPoint" />
            <Array as="points">
              <mxPoint x="230" y="230" />
            </Array>
          </mxGeometry>
        </mxCell>
        <mxCell id="oqt50vrC1taI-yx6oDw9-16" style="edgeStyle=elbowEdgeStyle;rounded=1;orthogonalLoop=1;jettySize=auto;html=1;startArrow=ERzeroToMany;startFill=0;endArrow=ERmandOne;endFill=0;entryX=1;entryY=0.5;entryDx=0;entryDy=0;exitX=1;exitY=0.5;exitDx=0;exitDy=0;" edge="1" parent="r35dB6ONybMWZtxrlVqa-1" source="oqt50vrC1taI-yx6oDw9-10" target="11MfjNws7Z_111s8Z915-24">
          <mxGeometry relative="1" as="geometry">
            <mxPoint x="780" y="660" as="sourcePoint" />
            <mxPoint x="550" y="570" as="targetPoint" />
            <Array as="points">
              <mxPoint x="590" y="410" />
            </Array>
          </mxGeometry>
        </mxCell>
        <mxCell id="oqt50vrC1taI-yx6oDw9-17" style="edgeStyle=elbowEdgeStyle;rounded=1;orthogonalLoop=1;jettySize=auto;html=1;startArrow=ERzeroToMany;startFill=0;endArrow=ERmandOne;endFill=0;entryX=1;entryY=0.5;entryDx=0;entryDy=0;exitX=1;exitY=0.5;exitDx=0;exitDy=0;" edge="1" parent="r35dB6ONybMWZtxrlVqa-1" source="oqt50vrC1taI-yx6oDw9-3" target="11MfjNws7Z_111s8Z915-1">
          <mxGeometry relative="1" as="geometry">
            <mxPoint x="570" y="391" as="sourcePoint" />
            <mxPoint x="510" y="587" as="targetPoint" />
            <Array as="points">
              <mxPoint x="620" y="520" />
            </Array>
          </mxGeometry>
        </mxCell>
        <mxCell id="oqt50vrC1taI-yx6oDw9-18" value="OrderReview" style="swimlane;fontStyle=0;childLayout=stackLayout;horizontal=1;startSize=26;fillColor=#ffcc99;horizontalStack=0;resizeParent=1;resizeParentMax=0;resizeLast=0;collapsible=1;marginBottom=0;swimlaneFillColor=#ffffff;align=center;fontSize=13;strokeColor=#36393d;" vertex="1" parent="r35dB6ONybMWZtxrlVqa-1">
          <mxGeometry x="-840" y="396" width="200" height="194" as="geometry" />
        </mxCell>
        <mxCell id="oqt50vrC1taI-yx6oDw9-19" value="OrderReviewID" style="shape=partialRectangle;top=0;left=0;right=0;bottom=1;align=left;verticalAlign=middle;spacingLeft=44;spacingRight=4;overflow=hidden;rotatable=0;points=[[0,0.5],[1,0.5]];portConstraint=eastwest;dropTarget=0;fontStyle=5;fontSize=11;" vertex="1" parent="oqt50vrC1taI-yx6oDw9-18">
          <mxGeometry y="26" width="200" height="30" as="geometry" />
        </mxCell>
        <mxCell id="oqt50vrC1taI-yx6oDw9-20" value="PK" style="shape=partialRectangle;top=0;left=0;bottom=0;fillColor=none;align=center;verticalAlign=middle;spacingLeft=4;spacingRight=4;overflow=hidden;rotatable=0;points=[];portConstraint=eastwest;part=1;fontSize=9;" vertex="1" connectable="0" parent="oqt50vrC1taI-yx6oDw9-19">
          <mxGeometry width="40" height="30" as="geometry" />
        </mxCell>
        <mxCell id="oqt50vrC1taI-yx6oDw9-37" value="ClientID" style="shape=partialRectangle;top=0;left=0;right=0;bottom=1;align=left;verticalAlign=middle;spacingLeft=44;spacingRight=4;overflow=hidden;rotatable=0;points=[[0,0.5],[1,0.5]];portConstraint=eastwest;dropTarget=0;fontStyle=0;fontSize=11;" vertex="1" parent="oqt50vrC1taI-yx6oDw9-18">
          <mxGeometry y="56" width="200" height="30" as="geometry" />
        </mxCell>
        <mxCell id="oqt50vrC1taI-yx6oDw9-38" value="FK1" style="shape=partialRectangle;top=0;left=0;bottom=0;fillColor=none;align=center;verticalAlign=middle;spacingLeft=4;spacingRight=4;overflow=hidden;rotatable=0;points=[];portConstraint=eastwest;part=1;fontSize=9;" vertex="1" connectable="0" parent="oqt50vrC1taI-yx6oDw9-37">
          <mxGeometry width="40" height="30" as="geometry" />
        </mxCell>
        <mxCell id="oqt50vrC1taI-yx6oDw9-21" value="OrderID" style="shape=partialRectangle;top=0;left=0;right=0;bottom=1;align=left;verticalAlign=middle;spacingLeft=44;spacingRight=4;overflow=hidden;rotatable=0;points=[[0,0.5],[1,0.5]];portConstraint=eastwest;dropTarget=0;fontStyle=0;fontSize=11;" vertex="1" parent="oqt50vrC1taI-yx6oDw9-18">
          <mxGeometry y="86" width="200" height="30" as="geometry" />
        </mxCell>
        <mxCell id="oqt50vrC1taI-yx6oDw9-22" value="FK2" style="shape=partialRectangle;top=0;left=0;bottom=0;fillColor=none;align=center;verticalAlign=middle;spacingLeft=4;spacingRight=4;overflow=hidden;rotatable=0;points=[];portConstraint=eastwest;part=1;fontSize=9;" vertex="1" connectable="0" parent="oqt50vrC1taI-yx6oDw9-21">
          <mxGeometry width="40" height="30" as="geometry" />
        </mxCell>
        <mxCell id="oqt50vrC1taI-yx6oDw9-23" value="Rating" style="shape=partialRectangle;top=0;left=0;right=0;bottom=0;align=left;verticalAlign=top;fillColor=none;spacingLeft=44;spacingRight=4;overflow=hidden;rotatable=0;points=[[0,0.5],[1,0.5]];portConstraint=eastwest;dropTarget=0;fontSize=11;" vertex="1" parent="oqt50vrC1taI-yx6oDw9-18">
          <mxGeometry y="116" width="200" height="26" as="geometry" />
        </mxCell>
        <mxCell id="oqt50vrC1taI-yx6oDw9-24" value="" style="shape=partialRectangle;top=0;left=0;bottom=0;fillColor=none;align=center;verticalAlign=top;spacingLeft=4;spacingRight=4;overflow=hidden;rotatable=0;points=[];portConstraint=eastwest;part=1;fontSize=11;" vertex="1" connectable="0" parent="oqt50vrC1taI-yx6oDw9-23">
          <mxGeometry width="40" height="26" as="geometry" />
        </mxCell>
        <mxCell id="oqt50vrC1taI-yx6oDw9-25" value="Text" style="shape=partialRectangle;top=0;left=0;right=0;bottom=0;align=left;verticalAlign=top;fillColor=none;spacingLeft=44;spacingRight=4;overflow=hidden;rotatable=0;points=[[0,0.5],[1,0.5]];portConstraint=eastwest;dropTarget=0;fontSize=11;" vertex="1" parent="oqt50vrC1taI-yx6oDw9-18">
          <mxGeometry y="142" width="200" height="26" as="geometry" />
        </mxCell>
        <mxCell id="oqt50vrC1taI-yx6oDw9-26" value="" style="shape=partialRectangle;top=0;left=0;bottom=0;fillColor=none;align=center;verticalAlign=top;spacingLeft=4;spacingRight=4;overflow=hidden;rotatable=0;points=[];portConstraint=eastwest;part=1;fontSize=11;" vertex="1" connectable="0" parent="oqt50vrC1taI-yx6oDw9-25">
          <mxGeometry width="40" height="26" as="geometry" />
        </mxCell>
        <mxCell id="oqt50vrC1taI-yx6oDw9-27" value="CompanyResponseID" style="shape=partialRectangle;top=0;left=0;right=0;bottom=0;align=left;verticalAlign=top;fillColor=none;spacingLeft=44;spacingRight=4;overflow=hidden;rotatable=0;points=[[0,0.5],[1,0.5]];portConstraint=eastwest;dropTarget=0;fontSize=11;" vertex="1" parent="oqt50vrC1taI-yx6oDw9-18">
          <mxGeometry y="168" width="200" height="26" as="geometry" />
        </mxCell>
        <mxCell id="oqt50vrC1taI-yx6oDw9-28" value="FK3" style="shape=partialRectangle;top=0;left=0;bottom=0;fillColor=none;align=center;verticalAlign=top;spacingLeft=4;spacingRight=4;overflow=hidden;rotatable=0;points=[];portConstraint=eastwest;part=1;fontSize=11;" vertex="1" connectable="0" parent="oqt50vrC1taI-yx6oDw9-27">
          <mxGeometry width="40" height="26" as="geometry" />
        </mxCell>
        <mxCell id="oqt50vrC1taI-yx6oDw9-29" value="CompanyResponseID" style="swimlane;fontStyle=0;childLayout=stackLayout;horizontal=1;startSize=26;fillColor=#fff2cc;horizontalStack=0;resizeParent=1;resizeParentMax=0;resizeLast=0;collapsible=1;marginBottom=0;swimlaneFillColor=#ffffff;align=center;fontSize=13;strokeColor=#d6b656;gradientColor=#ffd966;" vertex="1" parent="r35dB6ONybMWZtxrlVqa-1">
          <mxGeometry x="-1160" y="400" width="200" height="82" as="geometry" />
        </mxCell>
        <mxCell id="oqt50vrC1taI-yx6oDw9-30" value="CompanyResponseID" style="shape=partialRectangle;top=0;left=0;right=0;bottom=1;align=left;verticalAlign=middle;spacingLeft=44;spacingRight=4;overflow=hidden;rotatable=0;points=[[0,0.5],[1,0.5]];portConstraint=eastwest;dropTarget=0;fontStyle=5;fontSize=11;" vertex="1" parent="oqt50vrC1taI-yx6oDw9-29">
          <mxGeometry y="26" width="200" height="30" as="geometry" />
        </mxCell>
        <mxCell id="oqt50vrC1taI-yx6oDw9-31" value="PK" style="shape=partialRectangle;top=0;left=0;bottom=0;fillColor=none;align=center;verticalAlign=middle;spacingLeft=4;spacingRight=4;overflow=hidden;rotatable=0;points=[];portConstraint=eastwest;part=1;fontSize=11;" vertex="1" connectable="0" parent="oqt50vrC1taI-yx6oDw9-30">
          <mxGeometry width="40" height="30" as="geometry" />
        </mxCell>
        <mxCell id="oqt50vrC1taI-yx6oDw9-32" value="Name" style="shape=partialRectangle;top=0;left=0;right=0;bottom=0;align=left;verticalAlign=top;fillColor=none;spacingLeft=44;spacingRight=4;overflow=hidden;rotatable=0;points=[[0,0.5],[1,0.5]];portConstraint=eastwest;dropTarget=0;fontSize=11;" vertex="1" parent="oqt50vrC1taI-yx6oDw9-29">
          <mxGeometry y="56" width="200" height="26" as="geometry" />
        </mxCell>
        <mxCell id="oqt50vrC1taI-yx6oDw9-33" value="AK" style="shape=partialRectangle;top=0;left=0;bottom=0;fillColor=none;align=center;verticalAlign=top;spacingLeft=4;spacingRight=4;overflow=hidden;rotatable=0;points=[];portConstraint=eastwest;part=1;fontSize=11;" vertex="1" connectable="0" parent="oqt50vrC1taI-yx6oDw9-32">
          <mxGeometry width="40" height="26" as="geometry" />
        </mxCell>
        <mxCell id="oqt50vrC1taI-yx6oDw9-34" style="edgeStyle=entityRelationEdgeStyle;rounded=1;orthogonalLoop=1;jettySize=auto;html=1;exitX=0;exitY=0.5;exitDx=0;exitDy=0;entryX=1;entryY=0.5;entryDx=0;entryDy=0;startArrow=ERzeroToMany;startFill=0;endArrow=ERmandOne;endFill=0;" edge="1" parent="r35dB6ONybMWZtxrlVqa-1" source="oqt50vrC1taI-yx6oDw9-27" target="oqt50vrC1taI-yx6oDw9-30">
          <mxGeometry relative="1" as="geometry">
            <mxPoint x="-830" y="602" as="sourcePoint" />
            <mxPoint x="-1040" y="580" as="targetPoint" />
          </mxGeometry>
        </mxCell>
        <mxCell id="oqt50vrC1taI-yx6oDw9-35" style="edgeStyle=elbowEdgeStyle;rounded=1;orthogonalLoop=1;jettySize=auto;html=1;entryX=1;entryY=0.5;entryDx=0;entryDy=0;startArrow=ERzeroToMany;startFill=0;endArrow=ERmandOne;endFill=0;exitX=1;exitY=0.5;exitDx=0;exitDy=0;" edge="1" parent="r35dB6ONybMWZtxrlVqa-1" source="oqt50vrC1taI-yx6oDw9-19" target="e1cUlFGXbWlImAR1SOJB-93">
          <mxGeometry relative="1" as="geometry">
            <mxPoint x="-470" y="821" as="sourcePoint" />
            <mxPoint x="-630" y="-190" as="targetPoint" />
            <Array as="points">
              <mxPoint x="-610" y="120" />
            </Array>
          </mxGeometry>
        </mxCell>
        <mxCell id="oqt50vrC1taI-yx6oDw9-36" style="edgeStyle=elbowEdgeStyle;rounded=1;orthogonalLoop=1;jettySize=auto;html=1;entryX=0;entryY=0.5;entryDx=0;entryDy=0;startArrow=ERzeroToMany;startFill=0;endArrow=ERmandOne;endFill=0;exitX=1;exitY=0.5;exitDx=0;exitDy=0;" edge="1" parent="r35dB6ONybMWZtxrlVqa-1" source="oqt50vrC1taI-yx6oDw9-21" target="11MfjNws7Z_111s8Z915-122">
          <mxGeometry relative="1" as="geometry">
            <mxPoint x="-630" y="447" as="sourcePoint" />
            <mxPoint x="-630" y="-190" as="targetPoint" />
            <Array as="points">
              <mxPoint x="-560" y="510" />
            </Array>
          </mxGeometry>
        </mxCell>
      </root>
    </mxGraphModel>
  </diagram>
</mxfile>
